<?xml version="1.0" encoding="utf-8"?>
<!-- Generator: Adobe Illustrator 21.1.0, SVG Export Plug-In . SVG Version: 6.00 Build 0)  -->
<svg version="1.1" id="Calque_1" xmlns="http://www.w3.org/2000/svg" xmlns:xlink="http://www.w3.org/1999/xlink" x="0px" y="0px"
	 viewBox="0 0 432 432" style="enable-background:new 0 0 432 432;" xml:space="preserve">
<style type="text/css">
	.st0{fill:#6E3C3F;}
	.st1{fill:#E3635C;}
	.st2{fill:#343434;}
	.st3{fill:#B1C369;}
	.st4{fill:#A490C4;}
	.st5{fill:#A2C1DB;}
	.st6{fill:#AFB67B;}
	.st7{fill:#4F4747;}
	.st8{fill:#AA6555;}
	.st9{fill:#93C6E3;}
	.st10{fill:#9C3A47;}
	.st11{fill:#52B5C3;}
	.st12{fill:#4B6C2A;}
	.st13{fill:#F4A38D;}
	.st14{fill:#6A8E2D;}
	.st15{fill:#EE7A9F;}
	.st16{fill:#F7DA6A;}
	.st17{fill:#E2991A;}
	.st18{fill:#A7B7BE;}
	.st19{fill:#E8D8CA;}
	.st20{fill:#A1A499;}
	.st21{fill:#C42725;}
	.st22{fill:#DBDC50;}
	.st23{fill:#020203;}
	.st24{fill:#92AA3C;}
	.st25{fill:#DFB87F;}
	.st26{fill:#7E4E1C;}
	.st27{fill:#BBCC53;}
	.st28{fill:#BA5C78;}
	.st29{fill:#85924F;}
	.st30{fill:#7C1142;}
	.st31{fill:#3B322E;}
	.st32{fill:#3B6C51;}
	.st33{fill:#C1292E;}
	.st34{fill:#CDCCCC;}
	.st35{fill:#886649;}
	.st36{fill:#F9B03D;}
	.st37{fill:#7D8C5B;}
	.st38{fill:#0D341E;}
	.st39{fill:#4D8F53;}
	.st40{fill:#1B1B1B;}
	.st41{fill:#F39323;}
	.st42{fill:#E7E6E6;}
	.st43{fill:#9A908B;}
	.st44{fill:#548981;}
	.st45{fill:#89525A;}
	.st46{fill:#AB9AB1;}
	.st47{fill:#5E676E;}
	.st48{fill:#DDDBCA;}
	.st49{fill:#56463E;}
	.st50{fill:#457885;}
	.st51{fill:#FFFFFF;}
	.st52{fill:#E69678;}
	.st53{fill:#A5AB9B;}
	.st54{fill:#855354;}
	.st55{fill:#DE8F6E;}
	.st56{fill:#C19D63;}
	.st57{fill:#837F62;}
	.st58{fill:#7D8769;}
	.st59{fill:#39466A;}
	.st60{fill:#4E4D4D;}
	.st61{fill:#673E44;}
	.st62{fill:#CEB283;}
	.st63{fill:#8890A4;}
	.st64{fill:#99B8B3;}
	.st65{fill:#A0747A;}
	.st66{fill:#BB839E;}
	.st67{fill:#E5DA9B;}
	.st68{fill:#BA9BC9;}
	.st69{fill:#8CACB5;}
	.st70{fill:#746458;}
	.st71{fill:#34354B;}
	.st72{fill:#6A8188;}
	.st73{fill:#B4B4B4;}
	.st74{fill:#97CB9E;}
	.st75{fill:#EE7896;}
	.st76{fill:#785F63;}
	.st77{fill:#E4A87C;}
	.st78{fill:#98D5E8;}
	.st79{fill:#CB6083;}
	.st80{fill:#9A9999;}
	.st81{fill:#C49A6C;}
	.st82{fill:#EC96AB;}
	.st83{fill:#ED87AB;}
	.st84{fill:#E2B471;}
	.st85{fill:#59B465;}
	.st86{fill:#4C996E;}
	.st87{fill:#A84F6B;}
	.st88{fill:#6BC4CD;}
	.st89{fill:#D6809C;}
	.st90{fill:#9DD0B3;}
	.st91{fill:#F3AA9A;}
	.st92{fill:#F29292;}
	.st93{fill:#BBBBBB;}
	.st94{fill:#5B5242;}
	.st95{fill:#8CCDC6;}
	.st96{fill:#EAC892;}
	.st97{fill:#F4B0CC;}
	.st98{fill:#7A6350;}
	.st99{fill:#9FC64B;}
	.st100{fill:#A68C6D;}
	.st101{fill:#F1D3D4;}
	.st102{fill:#BE8BBE;}
	.st103{fill:#F49523;}
	.st104{fill:#789835;}
	.st105{fill:#8FA369;}
	.st106{fill:#B17081;}
	.st107{fill:#E1B63D;}
	.st108{fill:#B05274;}
	.st109{fill:#CA9256;}
	.st110{fill:#A9A9AA;}
	.st111{fill:#BE202E;}
	.st112{fill-rule:evenodd;clip-rule:evenodd;fill:#A9A9AA;}
	.st113{fill:#89657B;}
	.st114{fill:#7F95B7;}
	.st115{fill:#9F9EC6;}
	.st116{fill:#7F6178;}
	.st117{fill:#6D8999;}
	.st118{fill:#A0C07E;}
	.st119{fill:#AA779F;}
	.st120{fill:#FBC063;}
	.st121{fill:#80A0C2;}
	.st122{fill:#CFAC75;}
	.st123{fill:#CD94C2;}
	.st124{fill:#AAB6DE;}
	.st125{fill:#CCAE99;}
	.st126{fill:#86B69F;}
	.st127{fill:#555D57;}
	.st128{fill:#86C1BB;}
	.st129{fill:#CA856C;}
	.st130{fill:#A4AA6D;}
	.st131{fill:#EAB978;}
	.st132{fill:#C091A7;}
	.st133{fill:#7E9DAD;}
	.st134{fill:#E5B1C8;}
	.st135{fill:#B9AEA3;}
	.st136{fill:#627F99;}
	.st137{fill:#E6A9AB;}
	.st138{fill:#913E41;}
	.st139{fill:#B46269;}
	.st140{fill:#C69C6C;}
	.st141{fill:#ED6D78;}
	.st142{fill:#C09047;}
	.st143{fill:#AE6C7B;}
	.st144{fill:#918FB2;}
	.st145{fill:#67816D;}
	.st146{fill:#B3B1A2;}
	.st147{fill:#A23A43;}
	.st148{fill:#6A907C;}
	.st149{fill:#B09294;}
	.st150{fill:#7B484D;}
	.st151{fill:#B78B5E;}
	.st152{fill:#DB7D82;}
	.st153{fill:#781611;}
	.st154{fill:#D38F8F;}
	.st155{fill:#965656;}
	.st156{fill:#9AA4B4;}
	.st157{fill:#754D24;}
	.st158{fill:#C8B7A7;}
	.st159{fill:#B4363B;}
	.st160{fill:#C77272;}
	.st161{fill:#91AF82;}
	.st162{fill:#C69462;}
	.st163{fill:#ED6C5B;}
	.st164{fill:#F3C186;}
	.st165{fill:#F3957D;}
	.st166{fill:#D1BBBC;}
</style>
<g>
	<path class="st51" d="M203.3,330.7c-0.1,0.4-0.2,0.8-0.1,1.4C203.2,331.6,203.2,331.1,203.3,330.7z"/>
	<g>
		<path class="st42" d="M312.4,293.8c0.3-0.2,0.6-0.3,0.9-0.5c1-0.6,2-1.1,3.2-1.2c1.8-0.2,3.5,0.2,4.9,1.5c1.5,1.3,2.4,2.9,3,4.7
			c0.2,0.6,0.3,1.1,0.5,1.8c0.3-0.2,0.6-0.3,0.9-0.5c2.9-1.5,6-1.3,8.4,0.8c2.5,2.2,4,5,4,8.4c0,1.6-0.5,3-1.4,4.3
			c-1.4,2-3.2,3.3-5.5,4c-2.1,0.6-4.3,1-6.5,1.5c-5.2,1-10.4,1.6-15.7,2c-3.5,0.2-7,0.3-10.6,0.5c-4.6,0.2-9.3,0.4-13.9,0.5
			c-3.5,0.1-6.9,0-10.3-0.6c-2.5-0.5-4.9-1.3-7-2.7c-1.6-1.1-2.8-2.5-3.3-4.4c-0.9-3.6,0.4-6.5,3-8.8c1.5-1.4,3.4-2.2,5.5-2.5
			c0.1-2.9,0.9-5.5,3.3-7.4c2.4-1.9,5.1-2,8.1-1.2c0-0.6,0-1.1,0-1.6c0.2-3.4,1.5-6.3,4-8.6c3.2-2.8,7.1-2.5,9.8,0.8
			c0.7,0.8,1.2,1.7,1.7,2.6c0.2,0.3,0.3,0.6,0.5,1c0.4-0.2,0.7-0.5,1-0.7c1.3-0.8,2.6-1.4,4.2-1.4c2-0.1,3.5,0.7,4.8,2.1
			c1.3,1.4,2,3.2,2.2,5.1c0,0.2,0.1,0.4,0.1,0.6C312.2,293.7,312.3,293.7,312.4,293.8z"/>
		<path class="st42" d="M111.7,271.2c1-2.6,2.7-4.3,5.3-4.9c2.6-0.6,4.8,0.3,6.6,2.4c0.2-0.7,0.3-1.3,0.5-1.9
			c0.6-2.2,1.7-4.2,3.4-5.8c2.9-2.6,6.7-2.2,8.9,1c1.4,2,1.9,4.2,2.1,6.6c0.1,0.8,0.1,1.6,0.1,2.5c0.4-0.1,0.7-0.1,1-0.2
			c1.2-0.2,2.4-0.3,3.6,0c2.8,0.7,4.5,2.5,5.3,5.1c0.4,1.3,0.5,2.6,0.8,4c2.9,0.1,5.7,1,7.8,3.4c0.2-0.2,0.4-0.4,0.5-0.6
			c1.4-1.7,3.2-2.2,5.3-1.9c1.6,0.2,3,1,4.1,2.2c2,2.3,2.8,4.9,2.3,8c-0.4,1.9-1.4,3.2-3,4.2c-1.7,1-3.5,1.4-5.4,1.6
			c-3.3,0.5-6.7,0.4-10,0.3c-3.6-0.2-7.3-0.4-10.9-0.5c-2-0.1-4,0-6,0c-5.3,0.1-10.5,0-15.8-0.4c-2.9-0.2-5.8-0.3-8.7-0.5
			c-2.7-0.2-5.3-0.5-7.8-1.3c-1.8-0.5-3.5-1.4-5-2.6c-0.6-0.5-1.2-1.1-1.6-1.8c-2.2-3.2-1.4-7.7,1.8-10.1c1.9-1.4,4-2.2,6.4-2
			c0.1-2.2,0.9-4.1,2.5-5.6C107.5,271.2,109.4,270.7,111.7,271.2z"/>
	</g>
	<g>
		<g>
			<path class="st46" d="M240.9,330.4L240.9,330.4c-1.9-1.9-4.4-1.3-12.3-1.3c-7.9,0-16.9,0.2-19.9,0.2c-1.9,0-3.7-0.3-4.7,0.5
				c-0.1,0-0.1,0.1-0.1,0.1c-0.2,0.2-0.4,0.5-0.4,0.8c0,0,0,0,0,0c0,0.1-0.1,0.2-0.1,0.3c-0.1,0.3-0.1,0.6-0.1,0.9
				c0,0.1,0,0.1,0,0.2c0,0.1,0,0.2,0,0.4c0.2,1.6,0.3,3.3,0.6,5c0.5,3.9,1.1,7.9,1.6,11.8c0.4,3.3,0.8,6.7,1.3,10
				c0.2,1.4,0.6,2.7,1.1,4c0.4,1.2,1.3,2.2,2.6,2.5c1,0.3,2.1,0.6,3.1,0.8c4.5,0.7,9,0.8,13.5,0.7c2.1-0.1,4.2-0.3,6.2-0.6
				c1.9-0.2,3.1-1.4,3.6-3.2c0.4-1.2,0.6-2.5,0.8-3.8c0.8-5.6,1.7-11.2,2.4-16.8c0.5-3.4,0.9-6.7,1.3-10.1
				C241.5,331.9,241.4,331.1,240.9,330.4z"/>
			<path class="st46" d="M316,136.9c-0.9-3.8-2.1-7.5-3.6-11.1c-3.8-9.1-8.8-17.4-14.2-25.6c-0.1-0.2-0.3-0.4-0.5-0.6
				c-0.3,0.2-0.7,0.4-1,0.7c-3.4,2.4-7,4.4-10.9,6c-9.1,3.8-18.6,6-28.4,7.3c-7.3,0.9-14.7,1.5-22.1,1.8c-10,0.4-20,0-30-1
				c-7.2-0.8-14.4-1.9-21.5-3.5c-6.5-1.5-12.8-3.5-18.7-6.6c-4.5-2.4-9-5-12.8-8.5c-0.1-0.1-0.2-0.1-0.3-0.1
				c-10.5,10.4-17.6,22.7-21.4,37c0.5,0.3,0.9,0.5,1.3,0.7c3.8,2,7.7,3.7,11.7,5.3c14.8,6.1,30.1,9.8,46,10.9
				c5.1,0.4,10.2,0.8,15.4,1.1c6.5,0.5,13,0.7,19.6,0.7c5.2,0,10.4,0,15.6,0c10.2,0.1,20.4-0.3,30.5-1.6c8.6-1.1,17.1-2.9,25.5-5.2
				c6.6-1.8,13-4.4,19.4-6.7c0.2-0.1,0.3-0.2,0.4-0.3C316.1,137.4,316.1,137.1,316,136.9z M143.2,125.7c-2.6-0.1-4.6-2.2-4.6-4.8
				c0-1.9,1.2-3.4,3-3.9c1.9-0.5,3.8,0.3,4.7,2c0.2,0.4,0.4,0.8,0.6,1.2C148.2,122.8,146.3,125.8,143.2,125.7z M157.8,130.9
				c-2,0.6-3.3,0-3.8-2c-0.5-1.9-0.8-3.8-1.1-5.6c-0.7-5.4-1.4-10.8-2-16.2c-0.1-0.5,0-1,0-1.5h0c0-0.4,0-0.8,0-1.2
				c0.1-1.2,0.9-2,2.1-1.7c0.9,0.2,1.8,0.4,2.7,0.9c4.3,2.1,8.5,4.2,12.7,6.3c1.6,0.8,3.1,1.6,4.5,2.6c2.2,1.5,2.4,2.7,0.9,4.9
				c-0.4,0.5-0.8,1.1-1.3,1.5c-3.4,3.1-6.9,6.2-10.3,9.3C160.8,129.4,159.5,130.4,157.8,130.9z M174.8,135.6
				c-2.7,0.1-5.1-2.7-4.6-5.3c0.3-2,2.1-3.5,4.5-3.5c0.2,0,0.7,0.1,1.1,0.2c1.7,0.6,3.3,2.9,3.3,4.7
				C179,133.9,177.2,135.5,174.8,135.6z M200.3,134.7c-1.1,1.3-2.2,2.6-3.4,3.8c-0.6,0.6-1.3,1.3-2.1,1.7c-1.5,0.9-2.9,0.7-4.1-0.5
				c-1.4-1.4-2.6-3.1-3.6-4.8c-2.6-4.5-4.8-9.3-6.7-14.2c-0.3-0.7-0.5-1.4-0.6-2.1c-0.2-0.8-0.2-1.5,0.2-2.3
				c0.6-1.3,1.7-1.6,3.1-1.6c1.5,0.3,3,0.4,4.4,0.8c4,1,8.1,1.7,12.1,2.3c1.9,0.3,3.9,0.5,5.8,0.8c0.6,0.1,1.2,0.3,1.8,0.6
				c1.4,0.7,2,2.1,1.4,3.6c-0.2,0.7-0.6,1.3-1,2C205.5,128.4,202.9,131.5,200.3,134.7z M210.5,142.6c-2.8-0.2-4.6-1.6-4.6-4.1
				c0-2.5,2-4.5,4.4-4.5c2.5,0,4.6,2.1,4.6,4.6C215,140.9,213.1,142.7,210.5,142.6z M231.3,141.3c-0.5,0.5-1,1.1-1.6,1.5
				c-1.1,0.8-2.3,0.8-3.3-0.2c-0.8-0.8-1.6-1.7-2.3-2.7c-1.6-2.2-3.1-4.5-4.5-6.8c-1.8-2.9-3.4-5.9-5.1-8.9
				c-0.9-1.5-0.3-2.9,1.3-3.6c0.4-0.2,0.8-0.3,1.2-0.4c1-0.2,2-0.3,3-0.4c5.1-0.3,10.2-0.5,15.6-0.8c1.3,0.1,3,0.1,4.6,0.2
				c1.1,0.1,1.9,0.7,2.6,1.5c0.5,0.6,0.6,1.4,0.4,2.2c-0.2,0.6-0.4,1.2-0.8,1.7c-2.8,4.9-5.7,9.8-9.1,14.3
				C232.7,139.7,232,140.5,231.3,141.3z M244.2,145c-2.2,0-4.3-2.2-4.3-4.5c0-2.4,1.9-4.4,4.1-4.4c2.4,0,4.5,2.3,4.5,4.8
				C248.5,143.2,246.5,145.1,244.2,145z M263.9,138.3c-0.2,0.4-0.5,0.8-0.8,1.1c-1.1,1.1-2.5,1.4-3.9,0.7c-0.7-0.4-1.4-0.8-2-1.4
				c-4.4-4.4-8.2-9.3-10.8-14.9c-0.9-1.8-0.2-3.3,1.7-3.9c1.6-0.5,3.3-0.8,5-1.1c4.5-0.9,9-1.8,13.5-2.7c1.3-0.2,2.6-0.4,3.5-0.5
				c2.3,0,3.7,1.3,3.8,3.2c0,0.8-0.1,1.6-0.4,2.3c-0.6,1.6-1.3,3.2-2.1,4.7C268.9,129.9,266.4,134.1,263.9,138.3z M277.2,139.9
				c-2.3,0-4.1-2.1-4.1-4.5c0-2.3,2-4.1,4.3-4.1c2.3,0,4.2,2.1,4.2,4.7C281.6,138.2,279.7,140,277.2,139.9z M299,126.8
				c-0.2,1.1-0.5,2.3-0.8,3.4c-0.6,1.8-1.8,2.4-3.6,2c-0.9-0.2-1.9-0.6-2.7-1.1c-4.5-2.3-8.8-5.1-12.6-8.5c-0.4-0.4-0.9-0.8-1.3-1.2
				c-0.9-0.9-1.2-2-1.5-3.2c-0.2-1.1,0.3-2,1.1-2.7c0.7-0.5,1.4-1,2.1-1.3c4-1.9,8-3.7,12-5.5c1.5-0.7,2.9-1.3,4.4-1.9
				c0.5-0.2,1.1-0.5,1.7-0.6c1.6-0.5,3,0.2,3.4,1.9c0.2,0.8,0.2,1.6,0.4,2.7c-0.3,1.9-0.5,4-1,6C300,120,299.4,123.4,299,126.8z
				 M309.2,129.9c-0.8,1.5-2,2.5-4.1,2.6c-0.3-0.1-0.9-0.2-1.5-0.5c-1.5-0.7-2.5-2.9-2.3-4.6c0.2-1.9,1.4-3.3,3.2-3.9
				c0.7-0.2,1.4-0.2,2.2,0C309.3,124.3,310.6,127.5,309.2,129.9z"/>
		</g>
		<path class="st44" d="M126.7,158.7c-0.4-2,0.7-12.7,1.5-14.8c0.1,0.3,0.1,0.5,0.2,0.6c0.5,2.9,1.6,5.6,3.6,7.9
			c1.7,2,3.9,3.5,6.5,4c4,0.7,7.1-0.9,9.6-3.9c0.5-0.6,0.9-1.4,1.4-2.1c0.1-0.2,0.3-0.5,0.5-0.8c0.1,0.5,0.2,0.9,0.3,1.3
			c1.5,5.8,5,9.8,10.9,11.3c3.7,0.9,6.9,0,9.4-2.9c0.7-0.8,1.3-1.8,1.9-2.7c0.2-0.2,0.3-0.5,0.5-0.8c0.1,0.4,0.2,0.8,0.4,1.1
			c1.5,4.3,4.2,7.4,8.3,9.3c4.4,2,9.2,0.7,12-3.2c0.8-1.2,1.4-2.5,2-3.8c0.2-0.3,0.3-0.6,0.5-1.1c0.2,0.5,0.3,0.8,0.4,1.1
			c1.7,4.9,5.1,7.9,10,9.3c2.5,0.7,4.8,0.2,6.9-1.3c1.9-1.4,3.1-3.2,4.1-5.3c0.4-0.8,0.7-1.6,1.1-2.6c0.2,0.5,0.3,0.8,0.4,1.1
			c0.5,1.8,1.3,3.6,2.4,5.1c2.8,4,6.7,5.8,11.5,5.3c2.7-0.3,4.9-1.8,6.6-3.9c1.2-1.4,2-3,2.6-4.8c0.2-0.4,0.3-0.8,0.5-1.4
			c0.2,0.4,0.3,0.6,0.4,0.8c0.7,1.6,1.4,3.2,2.6,4.5c4.1,5,12.5,5.9,16.8-1.3c0.9-1.5,1.4-3.1,1.8-4.7c0.1-0.3,0.2-0.6,0.3-1.1
			c0.2,0.5,0.4,0.8,0.5,1.2c1.9,4.2,5.3,6.7,9.7,7.9c3.8,1,8-0.8,10.3-4.2c0.9-1.4,1.5-3,2.1-4.7c0.1-0.3,0.2-0.6,0.3-1
			c0.3,0.4,0.6,0.6,0.8,0.9c1.7,1.8,3.7,3.2,6.2,3.7c4,0.8,8-1,10-4.5c0.5-1,0.9-2,1.3-3.1c0.1-0.3,0.2-0.6,0.3-0.9
			c4,2,8.2,3.1,12.8,2.5c0.2,3.5,0.2,6.9,0.1,10.4c-1.7,0.4-3.3,0.9-4.9,1.3c-10.1,2.8-20.4,4.8-30.7,6.4c-6.8,1-13.7,1.8-20.6,2.3
			c-4.8,0.3-9.7,0.7-14.5,1c-6.5,0.3-12.9,0.4-19.4,0.1c-4.1-0.2-8.2-0.3-12.2-0.5c-3.7-0.2-7.4-0.5-11.1-0.9
			c-4.7-0.5-9.3-1-13.9-1.6c-4.9-0.6-9.9-1.4-14.8-2.2c-5.3-0.9-10.6-1.8-15.9-2.9c-11.2-2.4-22.1-5.8-32.4-10.7
			C127.7,159.1,127.2,158.9,126.7,158.7z"/>
		<g>
			<path class="st52" d="M317.8,175.9c-0.1,0.3-0.3,0.6-0.4,0.9c-1.7,4-3.6,7.9-6.1,11.4c-0.7,1.1-1.7,2-2.7,2.9
				c-1,1-2.3,1.4-3.8,1.4c-1.1,0-2.3-0.1-3.4-0.2c-4.2-0.5-8.1-1.9-11.6-4.3c-0.2-0.2-0.5-0.3-0.9-0.6c0.1,0.5,0.1,0.8,0.2,1.2
				c0.3,1.2,0.6,2.4,0.9,3.7c1.3,6,1.9,12,0.7,18.1c-0.4,2-0.8,3.9-1.9,5.6c-0.8,1.3-1.8,2.3-3.2,2.8c-1.8,0.7-3.6,0-4.3-1.8
				c-0.3-0.9-0.5-1.8-0.5-2.8c-0.1-2.7,0.3-5.4,0.7-8.1c0.8-5.2,1.6-10.5,2.3-15.7c0-0.3,0-0.5,0-0.8c-1.1,1.6-2.1,3.1-3.2,4.6
				c-1,1.3-2.3,2.5-3.7,3.4c-1.4,0.9-2.9,1.3-4.6,0.9c-0.9-0.2-1.7-0.4-2.5-0.6c-5.3-1.4-10-3.8-13.7-7.9c-0.1-0.1-0.2-0.1-0.4-0.2
				c0.1,0.8,0.1,1.4,0.2,2c0.7,5.6,0.9,11.3,0.1,16.9c-0.3,2.1-0.7,4.2-1.5,6.2c-0.4,1.1-1,2.1-1.9,2.9c-1.7,1.4-3.8,1.1-4.9-0.8
				c-0.4-0.8-0.7-1.7-0.9-2.5c-0.5-2.7-0.2-5.3,0.3-7.9c0.9-4.6,1.8-9.1,2.7-13.7c0.1-0.7,0.2-1.5,0.4-2.2c-0.2,0-0.2,0-0.2,0
				c-0.2,0.3-0.5,0.5-0.7,0.8c-1.9,2.3-3.9,4.5-6.3,6.2c-1.3,0.9-2.6,1.6-4.1,2.1c-1.4,0.5-2.9,0.4-4.3-0.1c-3.9-1.6-7.2-4-10.3-6.7
				c-0.3-0.2-0.6-0.5-0.9-0.8c-0.1,0.2-0.1,0.2-0.1,0.3c0,0.2,0.1,0.4,0.1,0.6c1,4.1,1.9,8.3,2.3,12.6c0.2,2.2,0.3,4.4,0.1,6.6
				c-0.2,1.5-0.5,3-1.2,4.3c-0.4,0.9-1,1.6-1.8,2.1c-1.5,0.9-3.2,0.8-4.4-0.5c-0.6-0.7-1.1-1.5-1.3-2.3c-0.4-1.2-0.6-2.4-0.6-3.6
				c0.1-3.1,0.4-6.3,0.6-9.4c0.3-3.6,0.5-7.2,0.8-10.9c0-0.2-0.1-0.4-0.1-0.8c-0.4,0.6-0.7,1.1-1,1.6c-1.4,2.3-3.1,4.3-5.4,5.8
				c-2.2,1.5-4.5,1.8-7.1,0.8c-6.1-2.4-11.4-5.9-15.3-11.3c-0.1-0.2-0.3-0.3-0.6-0.6c0,0.3,0.1,0.5,0.1,0.6c0.7,5,1.9,9.9,3.4,14.8
				c0.9,2.9,1.8,5.8,1.9,8.9c0,0.9,0,1.8-0.2,2.7c-0.6,2.4-2.9,3.2-4.8,1.7c-0.8-0.7-1.5-1.5-2.1-2.4c-0.9-1.3-1.5-2.9-1.9-4.4
				c-2.1-7.5-2.1-15.2-0.9-22.8c0.1-0.5,0.2-1.1,0.3-1.6c-0.1,0.1-0.2,0.1-0.3,0.1c-0.2,0.2-0.4,0.5-0.6,0.8c-1.5,2.1-3.3,4-5.3,5.6
				c-2.1,1.7-4.4,2.8-7.1,2.9c-1.4,0.1-2.6-0.2-3.7-0.9c-0.5-0.4-1.1-0.8-1.5-1.3c-2.9-3-5.7-6-7.9-9.6c-0.2-0.2-0.3-0.5-0.5-0.8
				c-0.1,0.2-0.1,0.3-0.1,0.4c0,0.5,0,0.9,0,1.4c0.3,4.2,1.1,8.3,2.2,12.3c0.9,3.4,2,6.7,2.9,10.1c0.5,1.8,0.8,3.6,0.8,5.5
				c0,1.2-0.3,2.4-1,3.4c-0.8,1.3-2.2,1.7-3.6,1.1c-0.7-0.3-1.3-0.8-1.9-1.3c-1.5-1.4-2.5-3.3-3.3-5.2c-1.5-3.8-2.3-7.8-2.6-11.8
				c-0.3-4.5,0-9,0.9-13.4c0.3-1.5,0.7-2.9,1.1-4.4c-1.3,1.1-2.6,2.2-3.9,3.2c-1.7,1.3-3.7,2.3-5.8,2.8c-3.1,0.8-5.7,0.2-7.9-2.4
				c-3.3-4.1-6.2-8.3-8-13.3c-0.1-0.2-0.2-0.3-0.3-0.5c0,0.2,0,0.4,0,0.5c0.5,5.1,1.2,10.2,2.4,15.2c2.7,11.6,7.2,22.4,13,32.7
				c4.6,8.2,10.1,15.9,15.9,23.4c3.4,4.2,6.8,8.4,10.1,12.7c2.7,3.6,5.4,7.3,7.9,11.1c4.8,7,9.3,14.2,13.2,21.8
				c2,3.8,3.1,7.9,4.2,12c0.3,1.3,0.6,2.6,0.9,3.9c0.3,1.3,1.1,2,2.4,2.1c0.1,0,0.2,0.1,0.4,0.1c2.3,7.5,4.6,15.2,6.9,22.8
				c0.1-0.1,0.3-0.1,0.4-0.1c0.6-0.1,1.6-0.2,2.9-0.3c-2.4-7.3-4.6-14.7-6.9-22.2c6.4,0.1,12.7,0.2,19,0.2
				c0.4,7.3,0.8,14.4,1.2,21.7h1.8c0.3,0,0.7,0,1,0c-0.2-7.2-0.5-14.3-0.3-21.5h21c-2.3,7.3-4.6,14.4-6.9,21.5
				c0.8,0.1,1.4,0.2,1.8,0.4c0.4,0.2,0.8,0.4,1.1,0.6c1.2-3.9,2.5-7.8,3.8-11.6c1.2-3.6,2.4-7.2,3.7-10.8c0.1-0.4,0.1-0.8,0.7-0.9
				c1.5-0.2,2.1-1.3,2.4-2.7c0.5-2.1,1-4.2,1.7-6.3c2.1-6,5-11.6,8-17.2c4.9-9.1,10.7-17.7,17.3-25.6c2.4-2.9,4.7-5.9,7-8.9
				c7.2-9.3,14-18.9,19.7-29.3c5.9-10.6,10.5-21.7,12.6-33.8c0.3-1.6,0.5-3.2,0.8-4.8C317.9,175.8,317.8,175.8,317.8,175.9z
				 M164.5,231.1c-2.5,0-4.7-2.2-4.7-4.7c0-2.4,1.9-4.3,4.4-4.3c2.6,0,4.6,2,4.7,4.5C168.9,229,166.9,231.1,164.5,231.1z M188.1,224
				c1.3-2.1,4.5-3.8,7.4-0.9c1.1,1.1,1.6,2.4,1.6,3.6c0,1.6-0.5,2.8-1.5,3.8c-1.7,1.8-4.1,1.9-6,0.4
				C187.3,229,186.7,226.3,188.1,224z M202.7,299c-0.6-0.1-1.2-0.3-1.5-0.9c-0.2-0.5-0.5-0.9-0.6-1.4c-1.9-6.8-3.6-13.6-5.5-20.4
				c-0.6-2.3-1.6-4.5-2.6-6.6c-2.4-5.3-5.2-10.4-8.3-15.3c-2.9-4.6-6.4-8.8-10.1-12.8c-0.7-0.8-1.4-1.6-2-2.5
				c-0.4-0.5-0.6-1.1-0.8-1.7c-0.2-0.6,0-1.3,0.6-1.7c0.6-0.4,1.2-0.4,1.8-0.1c0.7,0.5,1.4,1,2.1,1.6c4.5,4,8.4,8.7,11.7,13.8
				c5.6,8.6,10.2,17.7,13.2,27.6c1.6,5.3,3,10.7,4,16.1c0.1,0.7,0.2,1.4,0.3,2C205,298.1,204,299.2,202.7,299z M213.9,298.1
				c-0.6,0.3-1.1,0.4-1.7,0c-0.9-0.5-1.4-1.2-1.6-2.2c-0.2-0.9-0.4-1.8-0.4-2.8c-0.4-5.3-1.4-10.4-2.5-15.6
				c-1.3-5.9-3.2-11.6-5-17.4c-2-6.5-4.1-12.9-6.9-19.1c-0.4-0.9-0.7-1.8-0.9-2.8c-0.3-1.2,0.1-2.2,0.9-2.6c0.8-0.4,1.8-0.1,2.6,0.9
				c0.7,0.9,1.2,1.8,1.8,2.7c2.1,3.8,3.6,7.9,5,11.9c2.4,6.8,4.7,13.7,6.5,20.7c1.3,5.1,2.3,10.3,2.9,15.5c0.3,2.5,0.6,5.1,0.9,7.6
				C215.5,296.4,215.1,297.4,213.9,298.1z M245.9,227.1c0.5-2.2,2.7-3.7,4.9-3.4c2.9,0.4,4.5,2.1,4.5,4.8c0,2.4-1.7,4.4-4,4.8
				c-0.5,0.1-1.1,0-1.6-0.1C247.2,232.6,245.4,229.6,245.9,227.1z M226.1,294.6c-0.1,0.7-0.2,1.5-0.5,2.1c-0.7,1.6-2.4,1.8-3.5,0.4
				c-0.8-1-0.9-2.1-1-3.2c-0.2-2.8-0.5-5.6-0.7-8.4c-0.4-4.8-0.8-9.6-1-14.4c-0.3-5.9-0.6-11.7-0.9-17.6c-0.1-2.4-0.2-4.9-0.3-7.2
				c0-2,0-3.9,0-5.8c0-0.8,0.2-1.7,0.4-2.5c0.3-1.1,1.1-1.7,2-1.7c1,0,1.7,0.6,2.1,1.5c0.5,1.1,0.6,2.4,0.7,3.6
				c0.2,4.1,0.3,8.2,0.5,12.2c0.3,5.9,0.6,11.8,1,17.7c0.2,4.1,0.5,8.2,0.7,12.3c0.2,2.9,0.4,5.7,0.6,8.6
				C226.1,293,226.1,293.8,226.1,294.6z M226.5,228.9c-0.5,3.2-4,4.9-6.8,3.3c-1.7-0.9-2.9-2.9-2.9-4.9c0-3.3,3-5.4,6.1-4.3
				C225.3,224,226.9,226.5,226.5,228.9z M237.6,283.4c-0.3,3.3-0.4,6.7-0.7,10c-0.1,1-0.3,2.1-0.5,3.1c-0.2,0.6-0.5,1.2-0.9,1.6
				c-0.8,0.9-1.9,0.8-2.7,0c-0.5-0.5-0.8-1-0.9-1.7c-0.2-1.5-0.3-2.9-0.4-4.4c0.5-8.5,1.4-16.9,3.1-25.3c1.7-8.4,3.8-16.7,6.5-24.9
				c0.4-1.1,0.8-2.2,1.3-3.3c0.3-0.6,0.7-1.2,1.1-1.6c0.7-0.7,1.6-0.9,2.5-0.5c0.9,0.4,1.4,1.2,1.3,2.2c-0.1,0.8-0.3,1.6-0.5,2.4
				c-1,3.4-2.1,6.7-3,10.1c-2.1,7.6-3.9,15.3-5.1,23.1C238.2,277.3,237.9,280.3,237.6,283.4z M275.4,239.6c-0.9,1-1.8,2.1-2.8,3
				c-2.7,2.5-5.1,5.2-7.3,8.2c-6.1,8.1-10.5,17.1-13.2,26.9c-1.3,4.7-2.6,9.3-3.5,14.1c-0.3,1.7-0.5,3.4-0.8,5.1
				c-0.1,0.5-0.2,1-0.3,1.5c-0.4,1-1.4,1.7-2.4,1.6c-1.1-0.1-2-0.8-2.3-1.9c-0.1-0.5-0.2-1.1-0.2-1.6c0.2-3.2,0.8-6.2,1.5-9.3
				c1.5-6.2,3-12.3,5.3-18.3c2-5.3,4.5-10.4,7.5-15.2c2.7-4.2,5.5-8.3,9-11.9c1.6-1.6,3.2-3.1,5.3-4.1c0.8-0.4,1.7-0.6,2.6-0.8
				c0.7-0.2,1.4,0,1.8,0.7C275.9,238.3,275.9,239,275.4,239.6z M284.5,233.8c-1.7,0.7-3.4,0.3-4.7-1c-1.5-1.5-1.9-3.7-1.1-5.4
				c0.7-1.5,2-2.5,3.7-2.6c1.6-0.1,3,0.7,4,2c0.6,0.9,0.9,1.8,0.9,2.9C287.3,231.6,286.2,233.1,284.5,233.8z"/>
			<path class="st52" d="M292,91.9c1.2,1.5,2.4,3,3.7,4.6c-0.4,0.3-0.7,0.5-1,0.7c-5.2,3.6-10.9,5.9-16.8,7.8
				c-6.3,2-12.8,3.3-19.3,4.3c-6.2,0.9-12.5,1.3-18.8,1.7c-5.5,0.3-11.1,0.5-16.7,0.3c-7.1-0.2-14.2-0.7-21.2-1.6
				c-7.2-0.9-14.4-2.2-21.4-4c-8.7-2.3-16.6-6.2-23.8-11.5c-0.6-0.4-1.1-0.9-1.8-1.5c0.3-0.2,0.6-0.4,0.8-0.6
				c2.8-2.2,5.6-4.5,8.4-6.7c0.6-0.5,1.1-0.5,1.7-0.3c0.8,0.3,1.6,0.7,2,1.4c0.6,0.9,1.2,1.9,1.8,3c0.7,1.4,1.2,2.8,2,4.2
				c1,1.8,2.3,3.3,4,4.4c3,2,6.1,2.3,9.3,0.6c1.1-0.6,2.2-1.3,3.3-1.9c1.8-1.1,3.6-2.1,5.6-2.5c3.8-0.7,7.2,0.3,10,3.1
				c0.6,0.6,1.1,1.3,1.6,2c0.7,0.9,1.3,1.7,2,2.6c1.3,1.6,3,2.8,5,3.6c2.7,1,5.2,0.8,7.6-0.6c0.9-0.6,1.8-1.3,2.6-2
				c0.9-0.8,1.7-1.7,2.6-2.6c1.1-1,2.2-1.9,3.5-2.6c3.4-1.9,6.8-1.7,10.2,0.2c1.2,0.7,2.3,1.5,3.4,2.3c1.6,1.2,3.4,2.3,5.2,3.1
				c5.6,2.6,11.3,0.7,14.6-3.3c0.6-0.7,1.2-1.5,1.8-2.2c0.4-0.5,0.7-0.9,1.1-1.4c2.8-3.3,6.3-4.3,10.5-3.5c1.7,0.3,3.5,0.7,5.2,1
				C284.7,94.4,288.4,94,292,91.9z"/>
		</g>
		<g>
			<path class="st53" d="M287.2,86.6c-5.8-5.8-12.3-10.5-19.9-13.6c-5.6-2.3-11.3-4-17.1-5.5c-8.1-2.1-16.3-3-24.6-2.5
				c-6.1,0.3-12.1,1.1-18.1,2.2c-12.6,2.2-24.3,6.6-35.3,13.1c-0.3,0.2-0.6,0.4-1.1,0.6c1.4,1.4,2.3,3,3.1,4.6
				c0.5,1.1,1,2.3,1.5,3.4c0.6,1.4,1.5,2.7,2.7,3.7c1.4,1.3,3.1,1.6,4.9,0.9c0.9-0.4,1.7-0.9,2.6-1.4c0.7-0.4,1.4-1,2.2-1.4
				c4.7-2.7,9.5-2.9,14.3-0.4c1.8,0.9,3.5,2.1,4.9,3.5c1,1,2,2,3.1,3c0.7,0.6,1.4,1.3,2.1,1.8c0.8,0.6,1.6,0.9,2.6,1
				c1.2,0.1,2.2-0.2,3.1-1c1.2-1,2.3-2,3.5-3c2.2-1.9,4.7-3.2,7.4-3.9c1.1-0.3,2.2-0.4,3.3-0.5c3.2-0.1,6.3,0.7,9.2,2.2
				c2.3,1.1,4.6,2.4,6.9,3.5c0.9,0.4,1.9,0.8,2.8,1c2.3,0.5,4.3,0,5.8-1.9c0.7-0.8,1.3-1.6,2-2.5c1.9-2.4,4.4-4.1,7.2-5.3
				c1.5-0.6,3-0.9,4.6-0.9c2.5,0,4.9,0.3,7.3,0.8c2,0.5,4.1,0.7,6.1,0.5c1.3-0.1,2.5-0.5,3.5-1.5C287.5,87,287.4,86.8,287.2,86.6z
				 M198.3,82c-1.7,0.8-3.6,1.2-5.3,1.8c-0.5,0.1-1,0.2-1.6,0.2c-0.4-0.1-0.9-0.1-1.3-0.3c-1.1-0.5-1.5-1.5-1.2-2.6
				c0.2-0.5,0.4-1,0.8-1.4c0.7-0.8,1.3-1.6,2.2-2.1c1.7-1.2,3.4-2.4,5.3-3.3c4.9-2.4,10.1-4.2,15.5-5.4c1.2-0.3,2.5-0.3,3.7-0.4
				c0.5,0,1.1,0.1,1.5,0.4c1.2,0.6,1.2,2,0.2,2.9c-0.1,0.1-0.2,0.2-0.3,0.2C211.4,75.7,204.9,79,198.3,82z M222,85
				c-0.4,1.4-0.9,2.7-1.5,4c-0.4,1-1.3,1.6-2.3,1.8c-1.2,0.3-2.4-0.1-3.1-1.1c-0.8-1.2-1.2-2.6-0.9-4c0.2-1.1,0.4-2.1,0.7-3.1
				c1.1-3.5,2.5-6.8,4.3-10c0.5-0.8,1-1.5,1.5-2.2c0.5-0.6,1.1-0.9,1.7-0.7c0.7,0.2,1,0.7,1.1,1.6c0,0.6,0,1.3,0,1.9
				C223.2,77.2,223,81.2,222,85z M234.2,87.6c-0.7,1.4-2.1,1.8-3.5,1c-1.2-0.6-2-1.6-2.4-2.8c-0.7-1.8-1.4-3.7-1.8-5.6
				c-0.6-2.6-1-5.2-1.4-7.8c-0.1-0.6,0-1.3,0.2-1.8c0.4-1.3,1.8-1.5,2.8-0.6c0.2,0.2,0.4,0.5,0.6,0.7c2.4,3.6,4.3,7.5,5.8,11.6
				c0.3,0.8,0.4,1.8,0.6,2.7C234.8,85.9,234.6,86.8,234.2,87.6z M255.5,82.1c-0.7,0.3-1.5,0.4-2,0.5c-2.2-0.2-4-0.7-5.7-1.5
				c-2.7-1.4-5.3-2.8-7.9-4.3c-2.4-1.4-4.7-2.9-7-4.4c-0.8-0.5-1.6-1.1-2.3-1.6c-0.6-0.5-1-1-0.8-1.8c0.2-0.8,0.9-1.2,1.6-1.3
				c0.7-0.1,1.4-0.2,2.1,0c2.8,0.6,5.7,1.2,8.4,2c3.1,0.9,6.2,2,9.2,3.1c1.5,0.5,2.8,1.2,4,2.2c1,0.8,1.7,1.8,2.1,3
				C257.9,79.8,257.3,81.3,255.5,82.1z"/>
			<g>
				<path class="st53" d="M192.1,180.8c8.1,0.8,16.1,1.6,24.3,2.4c-0.3,1.3-0.7,2.5-1.3,3.7c-1.2,2.3-2.7,4.4-4.6,6.2
					c-0.7,0.7-1.5,1.2-2.3,1.7c-0.6,0.4-1.1,0.4-1.8,0.1c-3.4-1.3-6.4-3.4-8.9-6.1c-2-2.2-3.7-4.5-5.1-7.1c-0.1-0.2-0.2-0.4-0.3-0.6
					C192.1,181,192.1,180.9,192.1,180.8z"/>
				<path class="st53" d="M257.8,182.9c8.1-0.8,16.2-1.6,24.4-2.5c-0.6,1.7-1.1,3.4-1.8,5.1c-0.9,2.4-2.4,4.5-4.1,6.4
					c-0.2,0.2-0.4,0.4-0.7,0.7c-0.8,0.8-1.7,1.1-2.9,0.7c-6.1-1.7-11.2-4.8-14.8-10.1c-0.1-0.1-0.1-0.2-0.2-0.3
					C257.7,183,257.8,183,257.8,182.9z"/>
				<path class="st53" d="M313.6,173.9c-0.4,1.1-0.7,2-1,2.9c-1,2.8-2.3,5.4-3.9,7.9c-0.7,1-1.6,1.9-2.4,2.9
					c-0.3,0.4-0.8,0.5-1.3,0.4c-4.6-0.5-8.9-2-12.8-4.5c-1.4-0.9-2.6-2.3-3.9-3.5c-0.1-0.1-0.2-0.3-0.3-0.5
					C296.6,177.9,305.1,176.4,313.6,173.9z"/>
				<path class="st53" d="M159.3,175.4c7.6,1.3,15.2,2.7,23,4c-0.3,0.6-0.6,1.3-1,1.8c-2.1,3-4.6,5.6-7.7,7.6
					c-0.3,0.2-0.7,0.5-1.1,0.6c-1.1,0.4-2.2,0.3-3.1-0.5c-4.2-3.7-7.7-7.9-10-13.1c0-0.1-0.1-0.2-0.1-0.3
					C159.3,175.5,159.3,175.4,159.3,175.4z"/>
				<path class="st53" d="M248.2,183.5c-1.1,2-2.4,3.7-3.8,5.3c-1.6,2-3.4,3.9-5.4,5.5c-1.7,1.3-1.7,1.3-3.6,0.3
					c-0.9-0.5-1.8-1-2.6-1.5c-3.8-2.2-6.6-5.5-8.8-9.2c-0.1-0.1-0.1-0.3-0.2-0.4C231.8,183.5,239.9,183.5,248.2,183.5z"/>
				<path class="st53" d="M152.5,173.6c-1.4,2.2-3.2,3.8-5.4,5c-2.1,1.1-4.2,2-6.3,3c-0.9,0.4-1.5,0.2-2.2-0.5
					c-3.7-4-6.5-8.4-8.1-13.7c-0.1-0.3-0.2-0.7-0.3-1.2C137.6,169.2,144.9,171.6,152.5,173.6z"/>
			</g>
		</g>
	</g>
</g>
</svg>
