<?xml version="1.0" standalone="no"?>
<!DOCTYPE svg PUBLIC "-//W3C//DTD SVG 20010904//EN"
 "http://www.w3.org/TR/2001/REC-SVG-20010904/DTD/svg10.dtd">
<svg version="1.0" xmlns="http://www.w3.org/2000/svg"
 width="500.000000pt" height="180.000000pt" viewBox="0 0 500.000000 180.000000"
 preserveAspectRatio="xMidYMid meet">
<metadata>
Created by potrace 1.15, written by Peter Selinger 2001-2017
</metadata>
<g transform="translate(0.000000,180.000000) scale(0.100000,-0.100000)"
fill="#000000" stroke="none">
<path d="M4207 1709 c16 -7 16 -8 1 -8 -14 -1 -64 -22 -142 -59 -5 -3 -5 2 -1
9 5 8 4 11 -1 6 -5 -5 -9 -14 -9 -19 0 -6 -6 -13 -14 -16 -10 -3 -11 0 -5 9 4
8 -7 1 -26 -15 -38 -31 -104 -106 -81 -92 9 6 12 5 9 -5 -3 -8 -10 -14 -16
-14 -5 0 -14 -4 -19 -9 -5 -5 -3 -6 5 -2 17 10 15 3 -8 -36 -24 -41 -50 -162
-50 -231 1 -188 119 -418 362 -705 104 -122 132 -122 236 0 131 155 213 273
272 393 87 174 109 299 74 430 -9 33 -17 76 -18 95 -1 23 -6 35 -15 35 -8 0
-16 6 -19 14 -3 9 0 11 9 6 8 -5 11 -4 6 1 -5 5 -14 9 -19 9 -6 0 -13 6 -16
14 -3 10 0 11 9 5 8 -4 1 7 -15 26 -31 38 -106 104 -92 81 6 -9 5 -12 -5 -9
-8 3 -14 10 -14 16 0 5 -4 14 -9 19 -5 5 -6 2 -1 -6 4 -7 4 -12 -1 -9 -78 37
-128 58 -142 59 -15 0 -15 1 1 8 10 4 -45 7 -123 7 -78 0 -133 -3 -123 -7z
m-32 -126 c-99 -53 -159 -131 -186 -241 -23 -93 -23 -137 -4 -221 32 -135 122
-291 281 -487 47 -58 79 -106 73 -109 -14 -9 -31 7 -119 117 -315 391 -368
642 -181 850 40 45 132 108 156 108 6 -1 -3 -8 -20 -17z"/>
<path d="M2115 1230 c-11 -4 -23 -6 -28 -3 -8 5 -30 -47 -23 -55 3 -2 -2 -11
-10 -20 -9 -8 -14 -22 -11 -31 2 -9 -2 -23 -10 -30 -8 -7 -12 -20 -9 -28 3 -8
2 -12 -3 -9 -11 7 -55 -109 -46 -124 3 -5 11 -8 16 -5 5 3 6 -1 2 -10 -4 -13
-1 -16 13 -13 11 2 24 17 30 38 8 23 20 38 38 44 29 11 37 29 9 20 -15 -4 -15
-4 -3 4 8 5 27 12 43 16 22 5 27 3 27 -13 0 -10 7 -35 16 -56 8 -20 10 -34 5
-30 -6 3 -11 -1 -11 -9 0 -9 4 -16 9 -16 5 0 12 -13 16 -29 4 -19 11 -28 20
-25 10 4 13 30 13 102 0 85 2 97 18 103 18 7 18 8 1 8 -20 1 -41 44 -52 108
-7 47 -38 75 -70 63z"/>
<path d="M1365 1189 c-45 -33 -74 -68 -75 -87 0 -17 35 -45 62 -49 43 -6 79
-26 76 -41 -5 -26 -53 -54 -97 -55 -31 -2 -41 -6 -41 -19 0 -20 46 -58 69 -58
29 0 109 57 126 90 15 29 15 32 -5 60 -11 15 -38 37 -60 47 -22 10 -40 21 -40
24 0 10 77 49 98 49 12 0 22 8 25 21 4 16 -1 24 -28 35 -48 20 -65 17 -110
-17z"/>
<path d="M1790 1200 c-30 -16 -32 -19 -17 -26 15 -5 16 -9 5 -15 -10 -7 -9 -9
5 -9 20 0 23 -30 6 -61 -18 -35 -41 -153 -33 -173 3 -8 15 -13 28 -13 19 0 23
5 25 39 4 83 12 84 61 11 43 -65 103 -118 121 -107 14 8 4 45 -17 68 -33 35
-87 107 -83 109 2 2 16 11 31 20 15 9 33 27 39 39 12 23 12 23 -10 4 -11 -11
-21 -14 -21 -9 0 6 7 16 15 23 8 7 15 28 15 46 0 65 -95 95 -170 54z"/>
<path d="M2258 1213 c-10 -2 -18 -13 -18 -24 0 -16 8 -19 58 -21 l57 -1 -45
-7 -45 -7 42 -1 c41 -2 42 -3 37 -29 -20 -114 -22 -129 -13 -138 13 -13 11
-27 -3 -19 -8 5 -8 2 1 -10 11 -13 11 -16 2 -14 -7 2 -15 -7 -17 -20 -2 -13 0
-21 5 -18 5 3 7 -3 4 -13 -3 -13 2 -23 16 -31 20 -10 21 -9 15 28 -5 29 -2 40
9 45 8 3 17 26 21 59 4 29 14 83 22 121 13 57 19 67 37 67 38 0 67 12 67 26 0
11 -24 14 -117 13 -65 -1 -126 -3 -135 -6z"/>
<path d="M2922 1207 c-7 -8 -10 -28 -6 -48 4 -27 3 -31 -6 -19 -9 13 -10 12
-6 -5 8 -30 -4 -41 -56 -48 -54 -7 -54 -7 -39 70 6 33 5 40 -6 36 -7 -3 -13 0
-13 6 0 6 -6 11 -14 11 -9 0 -19 -25 -30 -72 -28 -130 -34 -184 -21 -202 7 -8
15 -13 18 -9 4 3 7 -1 7 -11 0 -33 18 -6 25 37 12 76 12 77 62 77 43 0 45 -1
39 -25 -18 -70 -18 -112 -2 -118 10 -4 19 -1 23 9 5 13 8 13 15 2 7 -9 8 -5 5
14 -2 15 -1 29 3 30 4 2 17 55 29 119 22 123 25 146 14 136 -3 -4 -11 0 -18 9
-10 14 -13 14 -23 1z"/>
<path d="M1575 1157 l-56 -54 2 -81 c1 -73 4 -83 27 -104 22 -21 24 -21 18 -4
-6 19 -6 19 12 3 10 -9 27 -17 38 -17 28 1 97 34 114 56 12 14 9 14 -14 -4
-16 -12 -34 -22 -40 -22 -6 0 4 12 22 26 17 14 32 34 32 45 0 16 -6 14 -46
-16 -36 -27 -51 -34 -72 -29 -34 9 -31 4 -38 55 -4 34 0 51 15 77 28 44 78 74
119 69 38 -4 43 14 10 37 -44 31 -82 21 -143 -37z"/>
<path d="M2540 1161 l-55 -49 -3 -79 c-4 -75 -2 -81 23 -109 20 -21 25 -24 20
-10 -6 19 -5 19 13 3 10 -9 27 -17 38 -17 28 1 97 34 114 56 12 14 9 14 -14
-4 -16 -12 -34 -22 -40 -22 -6 0 4 12 22 26 17 14 32 34 32 45 0 16 -6 14 -46
-17 -26 -19 -53 -33 -61 -30 -8 4 -21 6 -28 6 -9 0 -16 17 -21 45 -5 39 -3 51
20 85 31 47 77 74 117 68 35 -5 39 14 7 36 -41 29 -78 20 -138 -33z"/>
<path d="M3247 1203 c-4 -7 -16 -55 -23 -93 -2 -8 -8 -35 -13 -60 -13 -59 -14
-123 -1 -115 6 3 10 -1 10 -9 0 -13 3 -14 19 -4 14 8 21 33 30 97 7 47 15 89
18 94 8 13 83 -168 83 -199 0 -45 47 -25 57 24 6 35 7 36 14 12 7 -24 7 -24 8
5 2 32 35 188 46 218 6 13 3 16 -9 11 -12 -5 -15 -2 -10 11 5 13 2 16 -17 13
-21 -3 -26 -13 -48 -108 -20 -89 -25 -101 -33 -80 -5 14 -10 34 -11 45 -5 49
-42 128 -65 136 -28 11 -49 11 -55 2z"/>
<path d="M2475 602 c-3 -13 -4 -27 -1 -29 3 -3 -2 -12 -10 -21 -9 -8 -13 -23
-11 -33 3 -10 -2 -20 -10 -23 -10 -4 -13 -14 -10 -27 3 -12 3 -18 -1 -14 -4 4
-19 -20 -35 -52 l-27 -58 6 75 c3 41 8 96 10 121 4 32 1 49 -9 58 -22 18 -57
22 -57 6 0 -7 -7 -16 -16 -19 -9 -4 -14 -13 -10 -21 3 -8 0 -14 -6 -12 -6 1
-13 -4 -16 -12 -3 -9 0 -11 8 -6 9 6 9 3 1 -14 -14 -25 -23 -28 -14 -4 4 10 2
14 -4 10 -7 -4 -16 7 -23 28 -19 58 -82 83 -86 35 -2 -18 -12 -72 -24 -125 -5
-22 -12 -72 -15 -111 -6 -59 -5 -72 8 -77 29 -11 44 25 51 118 7 97 20 127 30
71 4 -19 15 -45 26 -58 18 -22 19 -22 26 -4 7 18 8 18 14 2 4 -13 12 -3 28 37
23 54 52 83 52 51 0 -9 -5 -12 -11 -8 -8 4 -9 -1 -5 -17 3 -13 3 -17 -1 -9 -8
17 -31 -115 -25 -142 2 -10 9 -15 16 -12 6 3 3 -1 -7 -9 -16 -14 -16 -15 -1
-21 9 -4 18 -5 19 -4 2 2 12 19 24 38 20 33 21 34 22 10 0 -23 1 -23 9 -5 8
18 9 18 9 2 1 -31 34 -15 45 22 7 24 19 37 38 45 16 6 26 16 24 23 -3 7 1 13
8 13 8 0 22 3 31 6 12 5 16 2 14 -12 -2 -10 3 -29 10 -42 7 -13 10 -31 7 -39
-9 -21 24 -92 39 -87 9 4 12 34 11 105 -2 94 -1 99 19 99 18 0 17 2 -5 13 -20
10 -29 27 -42 81 -9 38 -22 73 -30 77 -7 5 -30 8 -50 7 -30 -1 -38 -6 -43 -26z"/>
<path d="M2716 615 c4 -9 -3 -19 -20 -26 -31 -15 -33 -38 -6 -67 17 -18 19
-26 10 -42 -6 -11 -8 -25 -4 -31 4 -6 1 -15 -5 -19 -18 -11 -18 -149 0 -161
22 -14 39 18 39 73 0 47 1 48 49 72 26 14 60 40 75 58 14 18 31 38 36 45 14
17 12 69 -3 81 -7 6 -41 12 -75 13 -34 1 -62 6 -62 11 0 4 -9 8 -20 8 -13 0
-18 -5 -14 -15z"/>
</g>
</svg>
