<?xml version="1.0" encoding="utf-8"?>
<!-- Generator: Adobe Illustrator 21.1.0, SVG Export Plug-In . SVG Version: 6.00 Build 0)  -->
<svg version="1.1" id="Calque_1" xmlns="http://www.w3.org/2000/svg" xmlns:xlink="http://www.w3.org/1999/xlink" x="0px" y="0px"
	 viewBox="0 0 432 432" style="enable-background:new 0 0 432 432;" xml:space="preserve">
<style type="text/css">
	.st0{fill:#020203;}
	.st1{fill:#E5C758;}
	.st2{fill:#6A907C;}
	.st3{fill:#B4564D;}
	.st4{fill:#C69C6C;}
	.st5{fill:#343434;}
	.st6{fill:#92AF87;}
	.st7{fill:#9E5B55;}
	.st8{fill:#DD9457;}
	.st9{fill:#1B1B1B;}
	.st10{fill:#7694C1;}
	.st11{fill:#CE5258;}
	.st12{fill:#859B50;}
	.st13{fill:#545368;}
	.st14{fill:#857D7D;}
	.st15{fill:#87C48D;}
	.st16{fill:#B49AC9;}
	.st17{fill:#D6A576;}
	.st18{fill:#B4A4B8;}
	.st19{fill:#7CA166;}
	.st20{fill:#808181;}
	.st21{fill:#746969;}
	.st22{fill:#67816D;}
	.st23{fill:#6E955F;}
	.st24{fill:#957553;}
	.st25{fill:#567391;}
	.st26{fill:#D8A977;}
	.st27{fill:#A7BFDE;}
	.st28{fill:#F3957D;}
	.st29{fill:#0D9380;}
	.st30{fill:#DB9EA0;}
	.st31{fill:#9BB581;}
	.st32{fill:#9A4C5F;}
	.st33{fill:#E077AD;}
	.st34{fill:#8DB7CD;}
	.st35{fill:#B97A6B;}
	.st36{fill:#D3B56A;}
	.st37{fill:#C1292E;}
	.st38{fill:#BB7597;}
	.st39{fill:#82A5CE;}
	.st40{fill:#F7A94D;}
	.st41{fill:#978B7C;}
	.st42{fill:#647691;}
	.st43{fill:#8A9386;}
	.st44{fill:#E9BB54;}
	.st45{fill:#907B8A;}
	.st46{fill:#0D0D0D;}
	.st47{fill:#E96CA5;}
	.st48{fill:#91CBAD;}
	.st49{fill:#A98199;}
	.st50{fill:#B08CBA;}
	.st51{fill:#77B7B3;}
	.st52{fill:#AD6D70;}
	.st53{fill:#5C534E;}
	.st54{fill:#AD907C;}
	.st55{fill:#B9BB6B;}
	.st56{fill:#A093BB;}
	.st57{fill:#4E4D4D;}
	.st58{fill:#B8ADCB;}
	.st59{fill:#C29347;}
	.st60{fill-rule:evenodd;clip-rule:evenodd;fill:#C29347;}
	.st61{fill:#574866;}
	.st62{fill:#478C71;}
	.st63{fill:#75A389;}
	.st64{fill:#7793C0;}
	.st65{fill:#F3957E;}
	.st66{fill:#F7BFB0;}
	.st67{fill:#C09245;}
	.st68{fill:#A95A45;}
	.st69{fill:#D7A978;}
	.st70{fill:#AC8AB6;}
</style>
<g>
	<g>
		<g>
			<path class="st23" d="M351,211.8c-0.6,0.7-1.1,1.3-1.7,1.9c-0.5,0.5-0.8,1.2-1.7,1c-0.9-0.2-1-1-1.2-1.8
				c-0.4-2.1-0.8-4.2-1.3-6.3c-0.9-3.7-2.5-7.1-4.1-10.5c-1-2.1-2.1-4.1-3.2-6.1c-0.1-0.2-0.2-0.4-0.5-0.7c-0.2,0.8-0.4,1.4-0.6,2
				c-0.3,0.9-0.7,1.4-1.3,1.3c-0.8-0.1-1-0.7-1.2-1.3c0-0.1-0.1-0.2-0.1-0.3c-1.1-4.4-3.6-7.9-6.8-10.9c-2.2-2.1-4.6-4.1-7.2-5.7
				c-1.6-1-3.3-1.8-5.1-2.2c-1.7-0.4-3.1,0.1-4.1,1.6c-0.4,0.5-0.7,1.1-1,1.7c-0.9,2.4-1.8,4.9-2.5,7.4c-0.7,2.7-1.1,5.4-1.6,8.2
				c-0.1,0.4-0.2,0.9-0.4,1.3c-0.4,0.8-1.1,0.9-1.7,0.3c-0.3-0.3-0.6-0.8-0.8-1.2c-0.4-0.7-0.7-1.5-1.1-2.4
				c-0.2,0.5-0.4,0.8-0.5,1.1c-2.3,6.5-3.5,13.1-2.9,20c0.2,1.9,0.4,3.8,0.5,5.7c0,0.6,0.1,1.3,0,1.9c-0.2,1.2-1.1,1.5-2,0.8
				c-0.7-0.6-1.2-1.4-1.7-2.1c-0.3-0.4-0.5-0.8-0.8-1.3c-0.1,0-0.2,0-0.3,0c-0.2,1.1-0.4,2.3-0.5,3.4c-0.6,4.4-0.7,8.8-0.4,13.1
				c0.2,2.9,0.8,5.9,1.2,8.8c0.1,0.9,0.3,1.7,0.4,2.6c0,0.3,0,0.6,0,0.9c-0.1,1.4-1.1,1.9-2.2,1.1c-0.7-0.5-1.4-1.1-1.9-1.8
				c-1.3-1.5-2.2-3.3-3-5.1c-1.5-3.5-2.4-7.2-3.1-10.9c-0.3-1.7-0.6-3.3-0.9-5c-0.1-0.3-0.1-0.6-0.2-1c-0.1-0.5-0.5-0.8-1-0.8
				c-0.7,0-1.5,0-2.2,0.1c-1.8,0.1-2.6-0.6-2.6-2.4c0.1-1.2,0.3-2.5,0.6-3.7c1.2-4.3,3.1-8.3,5.3-12.1c0.9-1.6,1.9-3.1,2.8-4.7
				c0.3-0.5,0.5-1,0.7-1.5c0.2-0.6,0.1-0.9-0.5-1.3c0,0-0.1,0-0.1,0c-1.8-1-2.1-1.7-1.6-3.7c0.5-2.2,1.4-4.3,2.6-6.2
				c1-1.6,2.1-3.2,3.2-4.7c0.2-0.3,0.3-0.5,0.4-0.9c-0.3,0.2-0.7,0.4-1,0.6c-4.5,3-8,7-10.8,11.7c-1.5,2.5-2.7,5.1-4,7.7
				c-0.4,0.7-0.7,1.4-1.1,2c-0.3,0.5-0.7,0.8-1.3,0.7c-0.6-0.1-0.8-0.6-0.9-1.1c-0.1-0.6-0.1-1.2-0.2-1.7c0-0.5,0-1.1,0-1.7
				c-0.6,0.2-0.8,0.6-1,0.9c-1.6,2.3-2.9,4.7-4.1,7.3c-1.4,3.2-2.5,6.5-3.5,9.9c-0.3,0.9-0.6,1.9-0.9,2.8c-0.1,0.3-0.2,0.6-0.4,0.9
				c-0.3,0.6-0.6,1.3-1.4,1.2c-0.8-0.1-1-0.8-1.2-1.4c-0.7-2.6-0.9-5.2-0.6-7.8c0.4-3.9,1.4-7.6,2.4-11.4c0.2-0.8,0.4-1.6,0.6-2.4
				c0.2-0.7,0-0.9-0.7-1c-0.4-0.1-0.7,0-1.1-0.1c-0.4,0-0.9,0-1.3,0c-1-0.1-1.6-0.8-1.3-1.9c0.1-0.5,0.3-0.9,0.6-1.3
				c0.9-1.2,1.7-2.4,2.7-3.5c2.4-2.8,5.2-5.3,8-7.7c0.6-0.5,1.1-1.1,1.8-1.7c-0.6-0.3-1.1-0.4-1.6-0.7c-1.2-0.5-1.5-1.4-0.9-2.5
				c0.4-0.7,0.9-1.4,1.4-2.1c2.1-2.5,4.7-4.5,7.4-6.3c4.6-3.1,9.5-5.5,14.5-7.7c0.4-0.2,0.7-0.3,1.3-0.6c-0.6-0.1-0.9-0.2-1.2-0.3
				c-3.5-0.5-6.9-0.2-10.3,0.5c-3,0.7-5.9,1.6-8.8,2.6c-0.6,0.2-1.1,0.4-1.7,0.5c-1.7,0.3-2.8-0.8-2.4-2.4c0.2-0.8,0.6-1.6,0.9-2.3
				c0.3-0.6,0.6-1.2,0.9-1.9c-0.4,0-0.7-0.1-1,0c-1.4,0.4-2.9,0.7-4.3,1.4c-3.4,1.5-6.7,3.2-10,4.8c-1.8,0.9-3.6,1.8-5.4,2.6
				c-0.5,0.2-1,0.4-1.5,0.5c-1.1,0.2-1.8-0.4-1.7-1.5c0.1-0.9,0.3-1.8,0.5-2.8c-0.3,0-0.6,0-0.8,0.1c-1.1,0.4-2.2,0.9-3.4,1.3
				c-2,0.8-3.9,1.7-5.9,2.6c-0.4,0.2-0.9,0.3-1.3,0.5c-0.6,0.2-1.2,0.2-1.6-0.3c-0.5-0.5-0.5-1.2-0.2-1.7c0.4-0.8,0.8-1.6,1.4-2.3
				c1.5-1.9,3.2-3.6,5.1-5.1c4.9-3.8,10.5-6.5,16.5-8.2c2.9-0.8,5.8-1.5,8.7-2.2c0.2,0,0.4-0.1,0.5-0.1c1.7-0.5,1.9-0.7,1.5-2.5
				c-0.1-0.4-0.2-0.8-0.3-1.3c-0.3-1.4,0.2-2.3,1.5-2.9c1.3-0.5,2.7-0.5,4.1-0.4c3.4,0.4,6.6,1.5,9.7,2.9c2.8,1.2,5.5,2.6,8.3,4
				c0.4,0.2,0.8,0.4,1.4,0.7c0-0.7-0.2-1.3,0-1.8c0.2-0.5,0.8-0.8,1.2-1.2c-0.2-0.1-0.6-0.4-0.9-0.5c-2.5-1.1-5-2.3-7.5-3.4
				c-0.7-0.3-1.3-0.6-1.9-1c-1.2-0.8-1.1-2,0.2-2.7c0.5-0.3,1-0.5,1.5-0.7c0.4-0.2,0.9-0.3,1.5-0.6c-0.8-0.5-1.5-0.9-2.2-1.3
				c-3.2-1.6-6.6-2.6-10.1-3c-2.9-0.3-5.8-0.5-8.7-0.7c-0.7-0.1-1.4-0.1-2.1-0.2c-0.4-0.1-0.7-0.2-1-0.3c-0.6-0.3-0.8-1-0.5-1.6
				c0.3-0.4,0.6-0.8,1-1.1c0.7-0.5,1.5-1,2.3-1.5c0.4-0.2,0.7-0.5,1.2-0.8c-0.6-0.4-1.1-0.7-1.6-0.9c-1.9-0.9-3.9-1.4-6-1.8
				c-1.9-0.4-3.8-0.8-5.7-1.3c-0.6-0.2-1.2-0.4-1.7-0.7c-1.1-0.7-1.3-1.7-0.6-2.7c0.5-0.7,1.2-1.3,1.9-1.8c2-1.4,4.2-2.2,6.5-2.8
				c4.5-1.3,9-1,13.4,0.5c2.6,0.9,5.2,2.1,7.8,3.1c0.4,0.2,0.9,0.3,1.5,0.6c-0.1-0.5-0.1-0.8-0.1-1.2c0-0.4-0.1-0.7-0.1-1.1
				c0-0.9,0.7-1.5,1.6-1.2c0.4,0.1,0.9,0.4,1.3,0.6c5.8,3.3,10.8,7.4,15.4,12.2c1,1.1,2,2.1,3,3.3c0.4-0.4,0.7-0.7,1-0.9
				c0.7-0.7,1.5-0.7,2.2,0c0.7,0.7,1.3,1.5,1.8,2.3c2.5,4.4,4.7,9,6,13.9c0.1,0.4,0.2,0.8,0.4,1.4c0.4-0.7,0.8-1.2,1-1.7
				c2.6-4.2,5.4-8.3,8.4-12.2c0.4-0.5,0.9-1.1,1.4-1.6c1-0.9,1.8-0.7,2.3,0.5c0.1,0.2,0.2,0.5,0.3,0.8c0.3-0.2,0.5-0.3,0.8-0.5
				c5.5-4.2,11.7-7.2,18-9.9c0.2-0.1,0.4-0.2,0.6-0.2c1-0.3,1.6,0.2,1.7,1.3c0,0.3,0,0.6,0,1.1c0.7-0.1,1.4-0.1,2.2-0.3
				c3.2-0.5,6.5-0.3,9.7,0.1c2.2,0.3,4.5,0.7,6.7,1c0.4,0.1,0.9,0.1,1.3,0.3c0.9,0.3,1.1,1.2,0.3,1.8c-0.6,0.4-1.3,0.7-2,1
				c-3,1.2-5.9,2.3-8.9,3.5c-1.2,0.5-2.4,1-3.6,1.5c-0.3,0.1-0.6,0.3-1,0.5c0.5,0.4,0.9,0.8,1.3,1.1c0.3,0.2,0.6,0.4,0.8,0.7
				c0.7,0.7,0.6,1.6-0.3,2c-0.5,0.2-1.1,0.4-1.7,0.5c-5.7,1.1-11.2,2.9-16.4,5.3c-4.5,2-8.6,4.7-12,8.4c-0.2,0.2-0.4,0.4-0.7,0.8
				c1.1-0.3,2-0.5,2.9-0.7c5-1.3,10.1-2.2,15.3-2.6c1.5-0.1,3-0.4,4.6-0.7c0.2,0,0.4-0.1,0.6-0.1c0.5,0,0.9,0.2,1.2,0.6
				c0.2,0.5,0.1,1-0.3,1.3c-0.6,0.5-1.2,1-1.8,1.5c-0.3,0.3-0.6,0.5-1.1,0.9c1,0.2,1.8,0.3,2.6,0.4c8,0.9,15.4,3.4,22.2,8
				c0.7,0.5,1.4,0.9,2,1.3c0.4,0.3,0.8,0.6,0.8,1.2c-0.1,0.6-0.5,1-1.1,1.1c-0.8,0.3-1.6,0.4-2.4,0.7c-0.2,0.1-0.5,0.1-0.8,0.2
				c0.2,0.3,0.3,0.5,0.4,0.8c0.6,0.9,1.2,1.7,1.9,2.6c1.6,2.3,3,4.6,4.2,7.2c0.7,1.5,1.4,2.9,2.1,4.4c0.3,0.7,0.3,1.1-0.1,1.5
				c-0.4,0.4-0.9,0.4-1.5,0c-0.2-0.1-0.4-0.2-0.6-0.3c-4-2.9-8.3-5.1-12.8-7.2c-4.1-1.9-8.2-3.8-12.4-5.6c-0.3-0.1-0.5-0.2-0.9-0.4
				c0.1,0.4,0.1,0.7,0.2,1c0.1,0.4,0.3,0.8,0.4,1.3c0.2,1.1-0.5,1.7-1.6,1.4c-0.2-0.1-0.4-0.1-0.6-0.3c-3.2-2.2-6.9-3.1-10.6-4.2
				c-0.5-0.1-0.9-0.2-1.5-0.2c0.3,0.2,0.5,0.4,0.8,0.7c4.3,3.1,8.5,6.4,12.3,10c1.7,1.6,3.4,3.3,5.1,5c0.4,0.4,0.7,0.8,1,1.2
				c0.7,1.2,0.4,2.2-0.9,2.7c-0.7,0.3-1.5,0.4-2.3,0.6c0,0.4,0.3,0.7,0.6,1c0.9,1.2,1.9,2.3,2.8,3.5c4.2,6,6.6,12.6,7.4,19.9
				c0.5,4.9,0.3,9.8-0.5,14.6c0,0.3-0.1,0.7-0.3,0.9c-0.4,0.9-1.2,0.9-1.8,0.2c-0.3-0.3-0.4-0.8-0.6-1.1c-0.8-1.6-1.5-3.2-2.2-4.8
				c-1.5-3.3-3.6-6.3-5.8-9.2C351.4,212.1,351.3,212,351,211.8z"/>
			<path class="st24" d="M335.2,264.1c0.4,0.2,0.8,0.4,1.1,0.6c1.3,0.7,1.8,1.5,1.6,3c-0.1,1.2-0.3,2.3-0.6,3.5
				c-1.1,4.7-2.1,9.3-3.3,14c-0.4,1.7-1.1,3.2-2.3,4.7c0.4,0.1,0.6,0.2,0.9,0.3c1.4,0.5-0.5,9.6-0.8,11.1c-0.3,1.4-0.7,2.8-1.1,4.1
				c-0.8,2.8-1.6,5.5-2.4,8.3c-0.3,0.8-0.7,1.6-1.1,2.4c-0.5,1-1.4,1.3-2.5,1.2c-3.1-0.4-6.1-1.1-9-2.2c-1.2-0.5-2.5-1.1-3.6-1.9
				c-1.7-1.1-2-2.5-1.4-4.4c0.2-0.7,0.5-1.4,0.9-2c3.2-6.2,8.3-21,10.3-27.7c1.5-5.1,2.6-10.3,3.6-15.5c1.5-7.4,2.1-14.8,2.5-22.3
				c0.3-7.3-0.2-14.6-0.9-21.9c-0.9-8.8-2.8-17.4-5.7-25.7c-1.4-4-3.1-7.8-5.1-11.5c-1.1-2-2.5-3.9-3.8-5.8
				c-0.2-0.4-0.5-0.7-0.7-1.1c0.4-1.3,1-1.8,2.3-1.8c0.8,0,1.5,0.2,2.3,0.4c2.3,0.7,4.3,1.8,6.2,3.1c0.3,0.2,0.6,0.5,0.8,0.9
				c1.6,3.2,3,6.5,4,9.9c0.4,1.3,0.4,2.5-0.1,3.7c-0.1,0.2-0.1,0.3-0.1,0.6c0.2,0.1,0.3,0.2,0.5,0.2c0.9,0.3,1.4,0.9,1.8,1.7
				c1.8,3.4,3.2,6.9,4.3,10.5c0.4,1.4,0.3,2.7-0.6,3.9c0.1,0.2,0.1,0.2,0.2,0.3c1.5,0.5,2.2,1.6,2.5,3.1c1.3,5,2.3,10,2.7,15.1
				c0.1,1.3,0,2.6-0.8,3.8c0.3,0.1,0.5,0.2,0.7,0.3c1.2,0.5,1.7,1.1,1.6,2.4c-0.1,2.7-0.2,5.5-0.3,8.2c-0.2,3.8-0.5,7.7-0.8,11.5
				c-0.2,2.1-0.5,4.3-0.8,6.4c-0.2,1.6-0.9,2.9-2.2,3.9C335.6,263.6,335.4,263.9,335.2,264.1z"/>
		</g>
		<path class="st25" d="M152.5,296.3c-0.4,0.6-0.7,1.1-1,1.6c-1.8,3.1-4,5.8-6.6,8.2c-1.8,1.6-4,2.4-6.4,2.7c-3.2,0.3-6.2-0.4-9-1.9
			c-3.4-1.8-6-4.5-8.3-7.6c-0.2-0.3-0.4-0.5-0.6-0.9c-0.2,0.3-0.4,0.5-0.6,0.7c-1.4,1.8-2.9,3.6-4.6,5.2c-2,1.9-4.3,3.2-7.1,3.6
			c-2.2,0.3-4.4,0-6.6-0.6c-4.7-1.3-8.7-3.8-11.9-7.5c-0.4-0.4-0.7-0.8-1-1.3c-0.3-0.4-0.6-0.9-0.9-1.5c-0.3,0.2-0.6,0.5-1,0.7
			c-2,1.3-3.9,2.7-6,3.9c-2.8,1.7-5.9,2.8-9.2,3c-3.2,0.2-6.1-0.4-8.9-2c-0.8-0.4-1.4-1.1-2.1-1.7c-0.4-0.4-0.6-0.9-0.2-1.5
			c0.3-0.5,0.8-0.7,1.5-0.5c0.6,0.2,1.2,0.4,1.8,0.7c1.9,0.8,3.8,1.4,5.9,1.5c2.1,0.1,4.1-0.1,6.2-0.8c4.4-1.4,8.1-3.8,11.1-7.3
			c1-1.2,2.1-1.5,3.6-0.9c1.1,0.4,2,1.2,2.8,2c0.8,0.9,1.6,1.8,2.4,2.6c2.7,2.5,5.8,4.2,9.5,4.6c5,0.5,9.4-1,12.7-5
			c0.6-0.7,1.1-1.4,1.3-2.3c0.3-1.6,1.9-2.4,3.5-1.8c0.9,0.3,1.6,0.9,2.2,1.7c0.9,1.2,1.8,2.4,2.8,3.6c1.2,1.4,2.6,2.6,4.2,3.5
			c2.3,1.3,4.7,1.6,7.3,1c3.4-0.8,6.2-2.6,8.5-5.2c1-1.2,2-2.5,2.9-3.7c0.2-0.3,0.4-0.7,0.6-1.1c0.5-1.2,1.6-1.8,2.9-1.6
			c1.1,0.2,2,0.7,2.7,1.5c0.4,0.5,0.8,1,1.2,1.5c2.6,3.8,6.2,5.8,10.6,6.6c2.4,0.4,4.7,0.5,7.1,0.4c1,0,2-0.4,3-0.6
			c0.8-0.2,1.7-0.5,2.5-0.7c1.4-0.3,2.4,0.6,2.1,2.1c-0.2,1-0.8,1.8-1.7,2.4c-3.5,2.3-7.3,3.7-11.7,3.3c-3.8-0.4-7.4-1.4-10.8-3.4
			c-2.7-1.6-4.9-3.7-6.6-6.3C152.9,296.9,152.7,296.6,152.5,296.3z"/>
	</g>
	<g>
		<g>
			<path class="st25" d="M245.3,298.1c0.4,0.2,0.7,0.3,1,0.4c4.3,2,6.8,5.4,7.5,10.1c0.3,2-0.2,3.8-1.2,5.5
				c-1.1,1.8-2.7,3.2-4.6,4.1c-1.3,0.6-2.7,0.9-4.1,1.1c-2.1,0.4-4.2,0.6-6.4,0.3c-1.1-0.1-2.2-0.4-3.2-1c-0.8-0.4-1.3-1.1-1.4-1.9
				c-0.2-1.2-0.4-2.5-0.5-3.7c-0.4-5.2-0.8-10.4-1.1-15.6c-0.2-3.5-0.3-7-0.5-10.4c-0.1-1.2-0.2-2.4-0.3-3.6
				c-0.1-0.7-0.1-1.5-0.1-2.2c0-1,0.5-1.8,1.4-2.3c5-2.8,10.5-2,14.4,1.1c3.7,3,5.2,8.4,3.5,12.8c-0.7,1.7-1.7,3.2-3.2,4.3
				C246.2,297.4,245.8,297.7,245.3,298.1z M242.1,314.9c2-0.2,3.9-0.6,5.6-1.4c1.6-0.8,2.5-2.7,2.1-4.5c-0.6-2.9-2.2-5-4.8-6.4
				c-1.1-0.6-2.3-1-3.7-1.2C241.4,306,241.7,310.4,242.1,314.9z M240.9,296.2c0.7-0.3,1.3-0.4,1.8-0.7c1.8-1,3.2-2.4,3.6-4.5
				c0.6-3.3-0.8-5.8-3.2-7.9c-0.9-0.7-2-1.2-3.3-1.5C240.2,286.5,240.5,291.2,240.9,296.2z"/>
			<path class="st25" d="M202.7,300.5c0.4-2.2,0.7-4.4,1.2-6.6c0.7-3.3,1.5-6.5,2.2-9.8c0.2-0.8,0.3-1.6,0.5-2.4
				c0.1-0.4,0.2-0.8,0.4-1.1c0.5-0.8,1.4-1.3,2.2-1.1c0.9,0.2,1.7,0.9,1.8,1.9c0.1,0.7,0.1,1.3,0,2c-0.7,4.5-1.3,9.1-2.1,13.6
				c-1.1,6.3-2.2,12.6-2.9,19c-0.1,0.7-0.2,1.4-0.3,2.1c-0.3,1.7-1,2.3-2.7,2.6c-0.1,0-0.3,0-0.4,0c-3.3,0.2-3.7-0.5-4.6-2.8
				c-1-2.8-1.9-5.6-2.8-8.4c-1.7-5.5-3.3-11-5.1-16.4c-1-3.1-2.2-6.2-3.3-9.3c0-0.1-0.1-0.2-0.1-0.3c-0.7-2.2,0.2-3.7,2.5-3.9
				c1.6-0.2,3.1,0.2,4.6,0.5c0.8,0.2,1.3,0.8,1.7,1.4c0.5,0.8,1,1.6,1.3,2.5c1.3,3.6,2.5,7.2,3.8,10.8c0.6,1.6,1.1,3.3,1.7,5
				c0.1,0.2,0.2,0.5,0.3,0.7C202.6,300.5,202.7,300.5,202.7,300.5z"/>
			<path class="st25" d="M270.3,281.8c0.2,6.4,0.3,12.7,0.5,19.1c1.2,0.1,2.4,0.2,3.5,0.3c0.6,0,1.1,0,1.7,0.1
				c0.9,0.2,1.6,1,1.6,1.8c0,0.8-0.6,1.7-1.5,1.8c-1.3,0.2-2.7,0.2-4,0.3c-0.4,0-0.7-0.1-1.1-0.1c0,3.2,0,6.4,0,9.7
				c0.6,0,1.2,0,1.8,0c1.4,0,2.8,0,4.2,0.2c1.8,0.2,2.6,2,1.6,3.3c-0.5,0.6-1.1,0.9-1.8,0.9c-2.3,0-4.6,0.1-6.9-0.1
				c-1.8-0.1-3.7-0.4-5.5-0.7c-2.1-0.4-3.1-1.4-3.4-3.4c-0.2-1.6-0.4-3.2-0.4-4.8c-0.1-8.2-0.2-16.4-0.3-24.5c0-1-0.1-2-0.1-3
				c-0.2-3.1,1.9-4.5,4.2-4.6c2.7-0.2,5.4-0.2,8-0.3c0.2,0,0.3,0,0.5,0c0.9,0.1,1.6,0.8,1.7,1.7c0.1,0.9-0.4,1.7-1.3,2
				c-0.5,0.2-1,0.2-1.6,0.2C271.3,281.7,270.9,281.7,270.3,281.8z"/>
			<path class="st25" d="M302,311.4c-0.1,0.7-0.3,1.7-0.5,2.8c-1,3.5-3.7,5.3-7.3,4.9c-3.9-0.3-6.6-2.5-8.4-5.9
				c0-0.1-0.1-0.1-0.1-0.2c-0.4-0.9-0.2-1.6,0.3-2c0.5-0.4,1.2-0.3,1.9,0.2c0.9,0.6,1.8,1.2,2.7,1.7c0.7,0.4,1.6,0.5,2.4,0.3
				c1.1-0.2,1.6-0.7,1.7-1.8c0.1-1.3-0.2-2.5-0.9-3.7c-0.5-0.8-1-1.7-1.6-2.4c-1.6-2-3.3-3.9-4.9-5.9c-2.7-3.3-4.8-6.9-6.3-10.9
				c-0.2-0.5-0.4-1.1-0.4-1.7c-0.1-2.3,0.1-4.6,1-6.8c1.9-4.4,7.2-6.1,11.3-3.6c1.4,0.8,2.5,1.9,3.2,3.4c0.2,0.5,0.4,1.2,0.4,1.7
				c0,1-0.9,1.6-1.8,1.3c-0.6-0.2-1-0.6-1.5-0.9c-0.7-0.5-1.3-1.1-2-1.5c-1.5-0.8-2.7-0.4-3.3,1.2c-0.8,2.2-0.8,4.4,0.4,6.4
				c0.9,1.5,1.9,2.9,3,4.3c1.9,2.4,4,4.6,5.8,7c1.1,1.4,2.1,2.9,2.9,4.4C301.3,306.1,301.8,308.5,302,311.4z"/>
			<path class="st25" d="M227,314.6c0,0.8,0,1.5,0,2.3c0,1.2-0.5,1.9-1.5,2.3c-1.7,0.7-3.4,0.7-5.1,0.1c-1.1-0.4-1.6-1.2-1.9-2.3
				c-0.5-2.4-0.7-4.8-0.8-7.2c-0.3-5.1-0.6-10.3-1-15.4c-0.2-2.7-0.5-5.4-0.7-8.1c-0.1-1.4-0.1-2.9-0.1-4.3c0-0.4,0.1-0.7,0.1-1.1
				c0.4-2.1,1.8-3.2,4-2.9c0.8,0.1,1.5,0.3,2.2,0.5c1.4,0.5,2.3,1.6,2.5,3.1c0.2,1.4,0.3,2.9,0.4,4.3c0.4,5.3,0.7,10.6,1.1,15.8
				c0.3,3.8,0.5,7.7,0.8,11.5C227,313.8,226.9,314.2,227,314.6C227,314.6,227,314.6,227,314.6z"/>
		</g>
		<g>
			<path class="st5" d="M112.5,259.6c-0.2,0.5-0.4,1.1-0.7,1.6c-0.6,1.4-1.2,2.8-2,4.2c-0.7,1.2-1.5,2.5-2.5,3.5
				c-2.8,3.2-7.9,2.9-10.5-0.4c-2-2.6-3-5.5-3.6-8.6c-1.3-6.7-0.4-13.2,2-19.5c0.7-1.9,1.8-3.7,3.1-5.2c2.4-2.6,5.3-4.1,8.9-4
				c2.8,0,5.2,1.1,7.2,2.9c0.2,0.2,0.4,0.4,0.7,0.6c0.2-0.3,0.3-0.5,0.5-0.8c0.6-0.7,1.2-1.4,1.9-1.9c1.8-1.3,3.9-0.9,5.3,0.8
				c1.2,1.6,1.8,3.4,1.7,5.4c-0.1,2.2-0.3,4.4-0.6,6.6c-0.6,4.2-1.5,8.4-2,12.6c-0.4,2.8-0.6,5.7-0.6,8.5c-0.1,2.2,0.2,4.5,0.9,6.6
				c0.1,0.3,0.2,0.6,0.3,0.9c0,0.1,0.1,0.2,0.2,0.3c0.7,0,1.1-0.6,1.4-1.2c0.5-1.1,0.9-2.2,1.3-3.3c0.9-2.8,1.8-5.5,2.7-8.3
				c0.2-0.7,0.3-1.4,0.2-2.1c-0.8-6-0.3-12,1.7-17.8c0.7-2.1,1.7-3.9,3.2-5.6c1.4-1.6,3-2.6,5.1-2.9c3.2-0.5,6.9,2,7.7,5
				c0.1,0.5,0.1,1.1,0.1,1.6c0,0.5-0.2,1-0.8,1.2c-0.6,0.2-0.9-0.2-1.2-0.7c-0.6-0.9-1.4-1.6-2.4-2c-0.7-0.3-1.3-0.2-1.8,0.4
				c-0.7,0.7-1.1,1.4-1.4,2.3c-0.8,1.9-1.1,3.9-1.3,6c-0.3,2.9-0.5,5.8-0.4,8.7c0.1,2.1,0.1,4.2,0.8,6.3c0.2,0.8,0.5,1.5,0.9,2.2
				c0.7,1.1,1.5,1.4,2.6,0.7c0.9-0.6,1.8-1.2,2.5-2c0.9-0.9,1.8-1.8,2.7-2.7c0.6-0.6,1.2-1.3,1.8-1.9c0.4-0.4,0.7-0.9,0.7-1.5
				c0-3.9,0.7-7.7,1.9-11.5c0.6-1.9,1.4-3.6,2.5-5.3c1.4-2,3.2-3.5,5.6-4.2c1.9-0.5,3.7-0.4,5.5,0.5c0.9,0.4,1.7,1,2.7,1.5
				c0.1-0.2,0.2-0.4,0.2-0.7c0.2-0.7,0.3-1.4,0.6-2c0.3-0.7,0.7-1.3,1.2-1.9c1.7-2,4.3-1.7,5.7,0.5c0.8,1.3,1.1,2.8,1.2,4.3
				c0.3,2.8,0,5.6-0.1,8.4c-0.4,7-0.6,13.9,0.6,20.9c0.2,1.1,0.5,2.2,0.7,3.3c0.2,1,0.8,1.8,1.6,2.5c0.7-0.4,1-1.1,1.3-1.7
				c0.7-1.6,1.4-3.2,2.1-4.9c1.8-4.1,3.5-8.2,5.3-12.3c0.2-0.4,0.3-0.8,0.2-1.3c-0.4-6.1-0.1-12.1,0.2-18.2
				c0.3-4.9,0.5-9.7,0.8-14.6c0-0.1,0-0.2-0.1-0.4c-0.4,0.1-0.7,0.2-1,0.3c-2.8,0.9-5.5,1.8-8.4,2.5c-6.7,1.7-13.4,3.1-20.3,4.2
				c-2.9,0.5-5.9,1-8.9,1.3c-9.4,0.8-18.3-0.6-26.5-5.5c-3.9-2.3-7.3-5.1-9.9-8.8c-1.4-2-2.5-4.2-2.9-6.7c-0.1-0.6,0-1.1,0.1-1.7
				c0.4-1.6,1.8-2.2,3.2-1.4c0.5,0.3,1,0.8,1.4,1.2c0.6,0.7,1.2,1.5,1.7,2.4c3.9,6.3,9.6,10.1,16.6,12.4c6.2,2,12.6,2.9,19.1,2.5
				c5.1-0.3,10.1-1,15.1-1.9c6.8-1.2,13.5-2.8,20.1-5c0.2-0.1,0.4-0.1,0.6-0.2c0.1-1,0.2-2,0.3-3.1c0.3-2.8,0.5-5.7,0.9-8.5
				c0.1-1,0.5-2,0.8-3c0.3-0.9,0.9-1.6,1.7-2.2c1.5-1.1,3.3-0.9,4.5,0.5c0.7,0.8,1,1.7,1.3,2.7c0.6,2.3,0.8,4.6,0.8,7
				c0,1.3,0,2.7,0,4.1c0.5,0,1-0.1,1.4-0.1c3.7-0.5,7.4-0.6,11,0.3c0.7,0.2,1.3,0.5,1.9,0.9c1,0.8,0.8,2.1-0.5,2.5
				c-0.6,0.2-1.3,0.3-1.9,0.2c-2.5-0.2-5-0.5-7.5-0.2c-1.5,0.1-3,0.4-4.5,0.6c-0.1,1.5-0.2,2.8-0.2,4.2c-0.2,5.3-0.5,10.6-0.7,15.9
				c-0.2,6-0.3,11.9-0.3,17.9c0,1.9,0.4,3.9,0.6,6c0.3-0.2,0.5-0.3,0.7-0.4c0.7-0.9,1.4-1.7,2-2.6c1.5-2.3,2.9-4.7,4.4-7.1
				c0.2-0.3,0.3-0.8,0.3-1.1c0.1-2.8,0-5.6,0.1-8.3c0.1-2.4,0.3-4.7,0.6-7.1c0.1-1.2,0.5-2.3,1.2-3.3c1-1.4,2.5-1.7,4-0.9
				c1,0.6,1.7,1.5,2.2,2.6c0.8,1.7,1.1,3.5,1.2,5.4c0.2,3.2,0.3,6.5,0.4,9.7c0.1,3.4,0,6.8,0.1,10.2c0.1,2.8,0.4,5.7,0.6,8.5
				c0.1,0,0.1,0,0.2,0c0.2-0.2,0.4-0.3,0.5-0.5c0.5-0.9,1.1-1.8,1.6-2.8c1.2-2.4,2.3-4.9,3.4-7.3c0.2-0.4,0.2-1,0.2-1.5
				c-0.2-4.6,0.6-9.1,2.7-13.2c0.3-0.6,0.7-1.2,1-1.7c0.3-0.4,0.6-0.7,0.9-1c2.1-1.8,4.6-1.2,5.7,1.4c0.7,1.7,0.6,3.4,0.3,5.2
				c-0.4,2.2-0.9,4.3-1.2,6.5c-0.3,2-0.7,4-0.3,6c0.2,1.4,0.8,2.7,2,3.6c0.7,0.5,0.9,0.6,1.5-0.1c0.6-0.6,1.1-1.3,1.5-2
				c1.2-2.1,1.9-4.4,2.4-6.8c1.1-5.7,0.8-11.3-0.5-16.9c0-0.2-0.1-0.4-0.2-0.6c0-0.1-0.1-0.1-0.2-0.2c-1.3,0.2-2.7,0.4-4,0.6
				c-2,0.3-4,0.4-6,0.2c-4.9-0.7-7.8-3.5-8.6-8.3c-0.8-4.5,2.2-9,6.7-9.9c1.1-0.2,2.1-0.1,3.1,0.2c1.9,0.6,3.4,1.7,4.8,3
				c2.5,2.5,4.2,5.5,5.6,8.7c0.2,0.4,0.3,0.7,0.5,1.1c0.9-0.1,1.7-0.3,2.5-0.4c2-0.3,4-0.2,5.9,0.3c3.2,1,5.1,3.2,5.8,6.3
				c0.6,2.6,0.6,5.2,0.5,7.8c-0.1,2.3-0.2,4.7-0.3,7c0,0.2,0,0.4,0.2,0.6c0.1-0.3,0.3-0.6,0.4-0.9c1.4-3.6,2.9-7.2,4.9-10.5
				c0.9-1.4,1.7-2.8,2.8-4.1c1.7-2.1,3.8-3.4,6.4-4c3.5-0.8,6.5,0.3,8.5,3.3c1.3,2,2.3,4.1,3,6.4c1,3.3,1.5,6.7,2,10
				c0.5,3.6,0.9,7.1,2,10.6c0.1,0.4,0.3,0.8,0.5,1.2c0.7,1.2,1.8,1.3,2.6,0.3c1.4-1.7,2.6-3.5,3.6-5.4c0.6-1,1.1-2.2,1.7-3.2
				c1.2-2.1,2.5-4.1,3.7-6.1c0-0.1,0.1-0.1,0.1-0.2c0.5-0.7,1.2-1,1.8-0.6c0.6,0.3,0.8,1,0.4,1.9c-0.5,1.2-0.9,2.4-1.5,3.5
				c-2,4.2-4.1,8.4-6.8,12.3c-0.8,1.2-1.8,2.3-2.8,3.3c-2.5,2.5-7.1,2.3-9.5-0.2c-1.9-2-2.8-4.5-3.3-7.1c-0.6-3.1-1.1-6.3-1.6-9.5
				c-0.5-3.3-0.9-6.6-1.8-9.8c-0.4-1.5-1.1-2.9-1.7-4.3c-0.5-1.1-1-1.3-2.1-0.8c-0.8,0.4-1.6,0.8-2.3,1.4c-1.6,1.4-2.8,3.1-3.8,4.9
				c-1.6,2.8-2.6,5.8-3.6,8.8c-1,3-1.9,6-2.8,9c-0.3,0.9-0.6,1.8-1.1,2.7c-1.2,2.6-3.9,2.9-5.8,0.8c-1-1.1-1.5-2.3-1.6-3.7
				c-0.2-2.5-0.5-5.1-0.5-7.6c-0.1-3.8,0-7.6,0-11.4c0-2.2-0.2-4.4-0.6-6.6c-0.3-1.5-1-2.1-2.4-2.2c-0.6,0-1.2,0-1.9,0
				c0.2,0.9,0.4,1.7,0.5,2.5c0.9,4.1,1.3,8.2,1.1,12.4c-0.1,3.4-0.7,6.8-1.7,10.1c-0.7,2-1.6,3.9-2.9,5.5c-1.1,1.4-2.5,2.3-4.3,2.5
				c-0.6,0.1-1.1,0.1-1.7,0c-3.3-0.5-5.7-2.2-7.4-5c-0.3-0.6-0.7-1.1-1.1-1.8c-0.6,1.4-1.1,2.7-1.8,4c-0.9,1.8-1.8,3.7-2.8,5.4
				c-0.5,0.9-1.2,1.7-1.9,2.3c-1.6,1.5-3.7,1.7-5.6,0.7c-1.3-0.7-2.3-1.8-3-3.2c-1.1-2.2-1.5-4.5-1.8-6.9c-0.2-1.9-0.4-3.7-0.6-5.6
				c0-0.2,0-0.4-0.1-0.8c-0.3,0.4-0.4,0.6-0.6,0.9c-1.1,1.8-2.1,3.7-3.3,5.4c-0.7,1-1.5,1.9-2.4,2.7c-2.4,2-5.4,1.7-7.6-0.5
				c-1.3-1.3-2.2-2.9-2.7-4.6c-0.1-0.3-0.2-0.6-0.3-1.1c-0.2,0.3-0.3,0.5-0.4,0.7c-1.3,3.2-2.5,6.5-3.8,9.7c-1,2.4-2.1,4.8-3.7,6.9
				c-1.7,2.3-3.9,3.1-6.6,2.3c-2.1-0.6-3.8-1.8-4.9-3.6c-1.6-2.6-2.6-5.4-3-8.5c0-0.4-0.1-0.7-0.1-1.1c0-0.1-0.1-0.1-0.1-0.2
				c-0.2,0.3-0.3,0.6-0.4,0.8c-0.6,1.1-1.1,2.3-1.7,3.4c-0.7,1.3-1.8,2.3-3.1,3.1c-1.4,0.8-2.9,0.9-4.4,0.5c-2.6-0.8-4.4-2.5-5.5-5
				c-0.7-1.6-1.2-3.3-1.5-5c0-0.3-0.1-0.5-0.2-0.9c-0.8,0.9-1.6,1.8-2.4,2.6c-1.5,1.6-3.1,3.2-4.7,4.7c-2.5,2.3-6.4,2.2-9,0
				c-1.2-1.1-2.2-2.4-2.9-3.8c-0.1-0.2-0.2-0.3-0.4-0.7c-0.2,0.5-0.3,0.9-0.4,1.3c-0.8,2.7-1.6,5.4-2.5,8.1c-0.3,1-0.8,2-1.3,2.9
				c-0.3,0.5-0.6,1-1,1.4c-1.5,1.8-3.5,2.1-5.5,0.7c-1.2-0.8-2.2-1.9-2.9-3.2c-1.2-2.1-2-4.3-2.4-6.7c-0.5-2.7-0.8-5.5-0.8-8.3
				c0-0.3,0-0.5-0.1-0.8C112.7,259.7,112.6,259.7,112.5,259.6z M102.1,255.3c0.2,1.9,0.3,3.9,0.6,5.8c0.2,1.1,0.7,2.1,1.2,3.1
				c0.5,0.9,1,1,1.9,0.4c0.5-0.4,1-0.9,1.5-1.4c1.9-2.1,3.3-4.5,4.6-7c0.4-0.8,0.8-1.7,0.9-2.5c0.4-5,0.7-10.1,1.8-15
				c0.1-0.2,0-0.6-0.2-0.8c-1.5-1.5-3.3-2.2-5.4-2c-1.6,0.1-2.6,1.3-3.4,2.6c-0.1,0.2-0.3,0.4-0.4,0.7c-0.5,1.3-1.1,2.5-1.4,3.9
				C102.7,246.9,102.4,251.1,102.1,255.3z M157.1,256.7c0,2.3,0.2,4.6,0.6,6.8c0.1,0.7,0.3,1.4,0.6,2c0.4,0.8,0.9,1,1.6,0.4
				c0.5-0.4,0.9-0.8,1.2-1.3c1.1-1.8,2.1-3.6,3-5.4c0.6-1.2,1.2-2.4,1.7-3.6c0.2-0.4,0.3-0.8,0.3-1.2c0.1-3.8,0.1-7.6,0.4-11.3
				c0.1-1.5-0.4-2.2-1.6-2.7c-0.1-0.1-0.2-0.1-0.4-0.2c-2-1-3-0.7-4.2,1.2c-0.1,0.1-0.2,0.3-0.3,0.4c-0.6,1.6-1.4,3.2-1.9,4.9
				C157.4,249.8,157.1,253.2,157.1,256.7z M235.8,230.2c-0.1-0.3-0.2-0.6-0.3-0.8c-1.2-2.6-2.8-4.9-4.9-7c-0.6-0.6-1.3-1.1-2.1-1.5
				c-1.7-0.9-3-0.4-3.8,1.6c-0.1,0.2-0.1,0.5-0.2,0.8c-0.3,2.5,0.6,4.2,2.8,5.4C229.9,230.2,232.7,230.5,235.8,230.2z"/>
			<path class="st5" d="M79.9,267.8c0.1-0.8,0.2-1.6,0.3-2.4c0.4-4.1,0.8-8.3,1.3-12.4c1-8.3,2.6-16.4,4.9-24.4
				c2.1-7.4,4.6-14.7,7.8-21.7c2.2-4.8,4.8-9.3,8.2-13.3c2.1-2.4,4.5-4.5,7.4-6c2-1,4.1-1.6,6.3-1.3c2.3,0.3,4.2,1.4,5.8,3
				c0.3,0.3,0.5,0.7,0.7,1.1c0.3,0.7,0.2,1.3-0.3,1.9c-0.5,0.5-1.1,0.7-1.7,0.4c-0.5-0.2-1-0.5-1.5-0.8c-1.9-1.5-4-1.6-6.2-0.7
				c-2.4,0.9-4.4,2.5-6.2,4.3c-1.8,1.9-3.3,4-4.6,6.2c-2.7,4.4-4.7,9-6.6,13.8c-3.4,8.5-6,17.4-8.1,26.3c-1.7,7.3-3,14.8-3.7,22.3
				c-0.4,4.3-0.7,8.6-1,12.8c-0.2,2.4-0.5,4.9-0.8,7.3c-0.1,0.5-0.2,1-0.4,1.5c-0.8,2.1-2.8,3-4.9,2.3c-1.3-0.4-2.3-1.3-3-2.4
				c-0.9-1.4-1.7-2.8-2.4-4.2c-1.8-4-3-8.2-3.9-12.4c-1.4-6.3-2.4-12.7-3.1-19.1c-0.8-7.9-0.9-15.9-0.5-23.8
				c0.3-6.6,1-13.1,1.6-19.6c0.3-3.6,0.6-7.2,0.5-10.8c0-0.2,0-0.4,0-0.6c-0.1-2-1.4-2.9-3.3-2.3c-1.2,0.4-2.2,1-3.1,1.8
				c-1.2,1.2-2.2,2.5-3,4c-0.2,0.3-0.3,0.7-0.6,0.9c-0.2,0.2-0.6,0.4-0.9,0.4c-0.4,0-0.7-0.3-0.8-0.7c-0.1-0.4-0.1-0.8,0-1.1
				c0.3-1,0.5-2,0.9-2.8c1.4-2.8,3.4-5,5.9-6.9c1.7-1.3,3.6-1.9,5.7-2c2.4-0.1,4.3,0.8,5.8,2.7c1,1.2,1.7,2.6,2.2,4.1
				c0.9,2.6,1.3,5.3,1.6,8c0.6,5.2,0.2,10.4,0.2,15.6c-0.1,6-0.3,11.9-0.3,17.9c0,6,0.4,11.9,1.1,17.9c0.6,5.1,1.4,10.2,2.4,15.3
				c0,0.2,0.1,0.3,0.2,0.5C79.8,267.8,79.8,267.8,79.9,267.8z"/>
			<path class="st5" d="M213.3,223.1c0,2-1.5,3.7-3.4,4.1c-1.9,0.4-3.7-0.7-4.5-2.6c-1.1-2.5,0.3-4.9,2.2-5.5
				c2.3-0.8,4.8,0.5,5.5,2.9C213.2,222.3,213.2,222.7,213.3,223.1z"/>
		</g>
	</g>
</g>
</svg>
