<svg width="320" height="357" viewBox="0 0 320 357" fill="none" xmlns="http://www.w3.org/2000/svg">
<path d="M216.61 207L217.909 198H215.311L216.61 207Z" fill="white"/>
<path d="M244.61 214L245.909 205H243.311L244.61 214Z" fill="white"/>
<path d="M194.61 202L195.909 193H193.311L194.61 202Z" fill="white"/>
<path d="M124.61 202L125.909 193H123.311L124.61 202Z" fill="white"/>
<path d="M102.61 205L103.909 196H101.311L102.61 205Z" fill="white"/>
<rect x="185.11" y="117" width="15" height="27" rx="4" fill="white"/>
<rect x="222.149" y="162" width="94" height="8" transform="rotate(30.3229 222.149 162)" fill="white"/>
<path d="M255.108 181.204L192.854 193.547L304.897 220.561L255.108 181.204Z" fill="white"/>
<path d="M303.269 209.464L304.997 220.571L295.783 217.849L303.269 209.464Z" fill="white"/>
<path d="M153.694 22.2439C155.255 16.2642 163.745 16.2642 165.306 22.2439L171.828 47.2348C172.82 51.0365 169.951 54.75 166.022 54.75H152.978C149.049 54.75 146.18 51.0365 147.172 47.2348L153.694 22.2439Z" fill="white"/>
<rect x="147" y="48" width="25" height="227" fill="white"/>
<path d="M159.5 350L172.057 275H146.943L159.5 350Z" fill="white"/>
<path d="M14.1245 209.898L21.9149 217.615L11.5043 220.546L14.1245 209.898Z" fill="white"/>
<path d="M160.11 119L277.89 194H42.3307L160.11 119Z" fill="white"/>
<path d="M64.1958 179.291L126.454 190.405L15.2633 219.356L64.1958 179.291Z" fill="white"/>
<rect x="14.1102" y="209.852" width="94" height="8" transform="rotate(-29.8955 14.1102 209.852)" fill="white"/>
<rect x="120" y="117" width="15" height="27" rx="4" fill="white"/>
<path d="M74.6102 212L75.9092 203H73.3111L74.6102 212Z" fill="white"/>
<path d="M157 307L200.301 339.25H113.699L157 307Z" fill="white"/>
<path d="M140.1 326.672C140.359 326.394 140.753 326.287 141.117 326.396L168.245 334.49C169.209 334.778 169.193 336.149 168.221 336.413L121.789 349.026C120.818 349.289 120.109 348.115 120.796 347.379L140.1 326.672Z" fill="white"/>
<rect x="107" y="344" width="11" height="6" fill="white"/>
<rect x="107.03" y="344.065" width="18.6161" height="7.52405" transform="rotate(-36.4699 107.03 344.065)" fill="white"/>
<rect x="115.775" y="341.821" width="17.9601" height="8.47618" transform="rotate(-15.2183 115.775 341.821)" fill="white"/>
<path d="M179.411 326.792C179.153 326.517 178.761 326.412 178.398 326.519L151.046 334.615C150.077 334.902 150.09 336.275 151.063 336.537L197.88 349.153C198.853 349.415 199.564 348.237 198.875 347.504L179.411 326.792Z" fill="white"/>
<rect width="11" height="6" transform="matrix(-1 0 0 1 212.783 344)" fill="white"/>
<rect width="18.7131" height="7.54551" transform="matrix(-0.806438 -0.591318 -0.597482 0.801882 212.753 344.191)" fill="white"/>
<rect width="18.0948" height="8.4809" transform="matrix(-0.965462 -0.260544 -0.264464 0.964396 203.937 341.947)" fill="white"/>
<path d="M140.1 326.672C140.359 326.394 140.753 326.287 141.117 326.396L168.245 334.49C169.209 334.778 169.193 336.149 168.221 336.413L121.789 349.026C120.818 349.289 120.109 348.115 120.796 347.379L140.1 326.672Z" fill="white"/>
<rect x="107" y="344" width="11" height="6" fill="white"/>
<rect x="107.03" y="344.065" width="18.6161" height="7.52405" transform="rotate(-36.4699 107.03 344.065)" fill="white"/>
<rect x="115.775" y="341.821" width="17.9601" height="8.47618" transform="rotate(-15.2183 115.775 341.821)" fill="white"/>
<rect x="162.482" y="308" width="48.0073" height="6" transform="rotate(35.4771 162.482 308)" fill="white"/>
<rect x="45.3434" y="207.888" width="31.4213" height="2.53723" transform="rotate(-19.1367 45.3434 207.888)" fill="#C4C4C4"/>
<rect x="143" y="131" width="4" height="63" fill="#C4C4C4"/>
<rect x="157" y="316" width="1" height="23" fill="#C4C4C4"/>
<rect x="15.0169" y="219.621" width="4" height="101.304" transform="rotate(-104.727 15.0169 219.621)" fill="#C4C4C4"/>
<rect x="112" y="184" width="32" height="10" fill="#C4C4C4"/>
<path d="M112 184L133.651 192.25H90.3494L112 184Z" fill="#C4C4C4"/>
<rect x="74" y="197.884" width="21" height="3.33138" transform="rotate(-19.1367 74 197.884)" fill="#C4C4C4"/>
<rect x="90.2529" y="192.755" width="15.2176" height="5.71732" transform="rotate(-14.2839 90.2529 192.755)" fill="#C4C4C4"/>
<rect width="30.7935" height="2.39294" transform="matrix(-0.949504 -0.313756 -0.342363 0.939568 272.128 208.994)" fill="#C4C4C4"/>
<rect width="4.41453" height="104.957" transform="matrix(0.266069 -0.963954 -0.970072 -0.242817 301.825 220.627)" fill="#C4C4C4"/>
<rect width="35" height="9" transform="matrix(-1 0 0 1 207 186)" fill="#C4C4C4"/>
<path d="M206.5 186L185.282 194.25H227.718L206.5 186Z" fill="#C4C4C4"/>
<rect width="20.5804" height="3.14193" transform="matrix(-0.949504 -0.313756 -0.342363 0.939568 243.902 199.611)" fill="#C4C4C4"/>
<rect width="14.9462" height="5.3794" transform="matrix(-0.971844 -0.235624 -0.258283 0.966069 227.894 194.8)" fill="#C4C4C4"/>
<path d="M158.082 313.088L157.551 338.793L148.408 336.909L158.082 313.088Z" fill="#C4C4C4"/>
<path d="M156.465 336.781L145.987 342.421L153.342 325.298L156.465 336.781Z" fill="#C4C4C4"/>
<path d="M151.39 337.903L157.726 338.789L146.454 341.974L151.39 337.903Z" fill="#C4C4C4"/>
<rect x="152" y="338" width="5" height="1" fill="#C4C4C4"/>
<rect x="146.976" y="341.456" width="10.884" height="0.716003" transform="rotate(-15.2217 146.976 341.456)" fill="#C4C4C4"/>
<rect x="143.016" y="129.87" width="4.23562" height="0.655245" transform="rotate(-32.3221 143.016 129.87)" fill="#C4C4C4"/>
<rect x="144" y="130" width="3" height="1" fill="#C4C4C4"/>
<rect x="146" y="128" width="1" height="3" fill="#C4C4C4"/>
<rect x="145.139" y="128.561" width="1.09835" height="1.54115" transform="rotate(8.77689 145.139 128.561)" fill="#C4C4C4"/>
<rect x="143" y="130" width="1" height="1" fill="#C4C4C4"/>
<rect x="143" y="130" width="1" height="1" fill="#C4C4C4"/>
<rect x="144.192" y="129.206" width="1" height="1.73225" transform="rotate(8.68378 144.192 129.206)" fill="#C4C4C4"/>
<rect x="146" y="129" width="1" height="1" fill="#C4C4C4"/>
<path d="M147.023 127.333L146.93 128.059L146.414 127.739L147.023 127.333Z" fill="#C4C4C4"/>
<rect x="146.194" y="127.869" width="0.867347" height="0.0744512" transform="rotate(-32.9172 146.194 127.869)" fill="#C4C4C4"/>
<rect width="1.5962" height="0.110351" transform="matrix(-0.0140111 0.999902 0.999902 0.0140111 146.905 127.409)" fill="#C4C4C4"/>
</svg>
